<svg stroke-miterlimit="10" style="fill-rule:nonzero;clip-rule:evenodd;stroke-linecap:round;stroke-linejoin:round" viewBox="0 0 280 70" xml:space="preserve" xmlns="http://www.w3.org/2000/svg" xmlns:vectornator="http://vectornator.io">
  <defs>
    <linearGradient gradientUnits="userSpaceOnUse" id="a" x1="32.184" x2="40.513" y1="50.996" y2="50.996">
      <stop offset=".114" stop-color="#95a3a3" stop-opacity=".989"/>
      <stop offset=".981" stop-color="#6e7b84"/>
    </linearGradient>
    <linearGradient gradientUnits="userSpaceOnUse" id="b" x1="20.807" x2="42.859" y1="33.178" y2="33.178">
      <stop offset=".114" stop-color="#95a3a3" stop-opacity=".989"/>
      <stop offset=".981" stop-color="#6e7b84"/>
    </linearGradient>
    <linearGradient gradientUnits="userSpaceOnUse" id="c" x1="20.807" x2="42.859" y1="33.178" y2="33.178">
      <stop offset=".114" stop-color="#95a3a3" stop-opacity=".989"/>
      <stop offset=".981" stop-color="#6e7b84"/>
    </linearGradient>
    <linearGradient gradientUnits="userSpaceOnUse" id="d" x1="37.296" x2="67.686" y1="31.404" y2="31.404">
      <stop offset=".114" stop-color="#95a3a3" stop-opacity=".989"/>
      <stop offset=".981" stop-color="#6e7b84"/>
    </linearGradient>
    <linearGradient gradientUnits="userSpaceOnUse" id="e" x1="44.212" x2="80.807" y1="34.667" y2="34.667">
      <stop offset=".114" stop-color="#95a3a3" stop-opacity=".989"/>
      <stop offset=".981" stop-color="#6e7b84"/>
    </linearGradient>
    <linearGradient gradientUnits="userSpaceOnUse" id="f" x1="41.683" x2="58.174" y1="56.663" y2="56.663">
      <stop offset=".114" stop-color="#95a3a3" stop-opacity=".989"/>
      <stop offset=".981" stop-color="#6e7b84"/>
    </linearGradient>
    <linearGradient gradientUnits="userSpaceOnUse" id="g" x1="20.818" x2="80.818" y1="35.543" y2="35.543">
      <stop offset=".114" stop-color="#95a3a3" stop-opacity=".989"/>
      <stop offset=".981" stop-color="#6e7b84"/>
    </linearGradient>
    <linearGradient gradientUnits="userSpaceOnUse" id="h" x1="88.525" x2="261.017" y1="28.067" y2="28.067">
      <stop offset=".114" stop-color="#95a3a3" stop-opacity=".989"/>
      <stop offset=".981" stop-color="#6e7b84"/>
    </linearGradient>
    <linearGradient gradientUnits="userSpaceOnUse" id="i" x1="114.386" x2="234.436" y1="58.964" y2="58.964">
      <stop offset=".114" stop-color="#95a3a3" stop-opacity=".989"/>
      <stop offset=".981" stop-color="#6e7b84"/>
    </linearGradient>
  </defs>
  <g vectornator:layerName="Untitled" fill-rule="evenodd">
    <path d="M40.343 47.286a29 29 0 0 0-8.16-.391l8.33 8.33a30.56 30.56 0 0 1-.17-7.94Z" fill="url(#a)"/>
    <path d="M38.308 30.817a3.518 3.518 0 0 1-2.005-6.565 31.986 31.986 0 0 1-.46-3.739L20.806 35.548 30.83 45.572a30.535 30.535 0 0 1 9.732.27 30.98 30.98 0 0 1 2.296-7.738 30.843 30.843 0 0 1-4.551-7.287Z" fill="url(#b)"/>
    <path d="M38.308 30.817a3.518 3.518 0 0 1-2.005-6.565 31.986 31.986 0 0 1-.46-3.739L20.806 35.548 30.83 45.572a30.535 30.535 0 0 1 9.732.27 30.98 30.98 0 0 1 2.296-7.738 30.843 30.843 0 0 1-4.551-7.287Z" fill="url(#c)"/>
    <path d="M41.395 26.267a3.518 3.518 0 0 1-1.604 4.11 28.646 28.646 0 0 0 3.76 6.234 30.27 30.27 0 0 1 11.336-12.168 3.518 3.518 0 0 1 6.254-2.857c1.61-.535 3.264-.93 4.942-1.183L51.048 5.368 37.296 19.04c.014 1.597.169 3.19.46 4.761a3.518 3.518 0 0 1 3.64 2.466Zm2.546 13.13a28.939 28.939 0 0 0-1.904 6.706 31.068 31.068 0 0 1 5.934 2.115 3.528 3.528 0 0 1 5.833 3.638 30.482 30.482 0 0 1 5.463 5.584l8.42-8.4a30.601 30.601 0 0 1-23.746-9.643Z" fill="url(#d)"/>
    <path d="M67.045 21.756c-1.93.214-3.834.62-5.683 1.213a3.508 3.508 0 0 1-6.235 2.867 28.858 28.858 0 0 0-10.915 12.028 29.008 29.008 0 0 0 24.707 9.552l11.888-11.908-13.762-13.752Z" fill="url(#e)"/>
    <path d="M52.982 53.14a3.518 3.518 0 0 1-5.833-3.629 29.07 29.07 0 0 0-5.313-1.904 28.447 28.447 0 0 0 .622 9.542l8.55 8.57 7.166-7.167a28.188 28.188 0 0 0-5.192-5.413Z" fill="url(#f)"/>
    <path d="m51.037 5.355-13.75 13.688a27.32 27.32 0 0 0 .469 4.75 3.505 3.505 0 0 1 3.625 2.469c.497 1.576-.16 3.302-1.594 4.125a28.505 28.505 0 0 0 3.75 6.218A30.257 30.257 0 0 1 54.881 24.45c-.353-1.617.463-3.281 1.969-3.969a3.522 3.522 0 0 1 4.28 1.094 29.633 29.633 0 0 1 4.938-1.156L51.038 5.355ZM35.85 20.512l-15.032 15.03 10 10.032a30.651 30.651 0 0 1 9.75.281 31.04 31.04 0 0 1 2.282-7.75 30.733 30.733 0 0 1-4.532-7.281c-1.64.123-3.144-.926-3.625-2.5a3.49 3.49 0 0 1 1.625-4.063 32.171 32.171 0 0 1-.468-3.75Zm31.187 1.25c-1.93.213-3.838.625-5.687 1.218a3.473 3.473 0 0 1-1.938 3.938 3.515 3.515 0 0 1-4.281-1.094 28.844 28.844 0 0 0-10.906 12.031 28.976 28.976 0 0 0 24.687 9.563L80.818 35.51l-13.78-13.75ZM43.943 39.386a29.048 29.048 0 0 0-1.906 6.72 31.135 31.135 0 0 1 5.938 2.124 3.544 3.544 0 0 1 4.375-.5 3.509 3.509 0 0 1 1.468 4.125 30.408 30.408 0 0 1 5.438 5.594l8.437-8.406a30.623 30.623 0 0 1-23.75-9.657Zm-7.656 7.407a29.014 29.014 0 0 0-4.094.093l8.313 8.344a30.553 30.553 0 0 1-.156-7.937 28.98 28.98 0 0 0-4.063-.5Zm5.563.812c-.333 3.193-.15 6.409.593 9.532l8.563 8.593 7.156-7.187a28.126 28.126 0 0 0-5.187-5.407 3.521 3.521 0 0 1-4.375.532c-1.401-.872-1.986-2.6-1.438-4.157a29.074 29.074 0 0 0-5.312-1.906Z" fill="url(#g)"/>
    <path d="M104.435 32.407v-6.79h14.52v20.59a38.279 38.279 0 0 1-6.28 1.69c-2.153.393-4.49.59-7.01.59-5.566 0-9.816-1.784-12.75-5.35-2.926-3.56-4.39-8.604-4.39-15.13 0-4.154.734-7.75 2.2-10.79 1.46-3.047 3.62-5.403 6.48-7.07 2.854-1.667 6.32-2.5 10.4-2.5 2.04 0 4.017.23 5.93.69 1.914.466 3.63 1.05 5.15 1.75l-2.56 6.57c-1.186-.634-2.503-1.153-3.95-1.56a16.582 16.582 0 0 0-4.51-.61c-3.373 0-6.016 1.223-7.93 3.67-1.906 2.447-2.86 5.787-2.86 10.02 0 2.666.324 5.013.97 7.04.647 2.02 1.657 3.596 3.03 4.73 1.374 1.127 3.137 1.69 5.29 1.69 1.04 0 1.94-.063 2.7-.19.76-.134 1.474-.274 2.14-.42v-8.62h-6.57Zm43.962 4.28c0 3.56-1.187 6.416-3.56 8.57-2.373 2.153-5.693 3.23-9.96 3.23-1.927 0-3.77-.187-5.53-.56a19.259 19.259 0 0 1-4.98-1.78v-7.79a39.36 39.36 0 0 0 5.34 2.2c1.853.613 3.67.92 5.45.92 1.82 0 3.147-.4 3.98-1.2.833-.8 1.25-1.81 1.25-3.03 0-1.413-.593-2.574-1.78-3.48-1.187-.907-2.893-1.937-5.12-3.09a39.532 39.532 0 0 1-4.03-2.47c-1.353-.947-2.477-2.163-3.37-3.65-.893-1.487-1.34-3.377-1.34-5.67-.033-3.494 1.08-6.24 3.34-8.24 2.267-2 5.367-3 9.3-3 1.927 0 3.76.23 5.5.69 1.747.466 3.547 1.126 5.4 1.98l-2.5 6.62c-1.633-.747-3.117-1.314-4.45-1.7a14.405 14.405 0 0 0-4.01-.58c-1.487 0-2.617.36-3.39 1.08-.78.726-1.17 1.683-1.17 2.87 0 .927.23 1.713.69 2.36.467.653 1.19 1.283 2.17 1.89.987.613 2.297 1.33 3.93 2.15 1.887.96 3.49 1.97 4.81 3.03 1.313 1.053 2.313 2.267 3 3.64.687 1.373 1.03 3.043 1.03 5.01Zm29.72 11.24h-7.13l-8.9-30.49h-.22c.033.926.087 2.056.16 3.39.08 1.34.147 2.713.2 4.12.053 1.407.08 2.666.08 3.78v19.2h-7.4V8.197h11.13l8.68 29.21h.17l8.96-29.21h11.12v39.73h-7.62v-19.42c0-1.114.02-2.347.06-3.7.033-1.354.08-2.69.14-4.01.053-1.314.1-2.417.14-3.31h-.23l-9.34 30.44Zm48.01 0h-22.25V8.197h8.12v32.89h14.13v6.84Zm20.37-15.52v-6.79h14.52v20.59a38.232 38.232 0 0 1-6.29 1.69c-2.147.393-4.483.59-7.01.59-5.56 0-9.807-1.784-12.74-5.35-2.933-3.56-4.4-8.604-4.4-15.13 0-4.154.733-7.75 2.2-10.79 1.467-3.047 3.627-5.403 6.48-7.07 2.86-1.667 6.33-2.5 10.41-2.5 2.04 0 4.017.23 5.93.69 1.907.466 3.62 1.05 5.14 1.75l-2.56 6.57a19.672 19.672 0 0 0-3.95-1.56 16.552 16.552 0 0 0-4.5-.61c-3.38 0-6.023 1.223-7.93 3.67-1.913 2.447-2.87 5.787-2.87 10.02 0 2.666.323 5.013.97 7.04.653 2.02 1.667 3.596 3.04 4.73 1.373 1.127 3.133 1.69 5.28 1.69 1.04 0 1.94-.063 2.7-.19a51 51 0 0 0 2.14-.42v-8.62h-6.56Z" fill="url(#h)"/>
    <path d="M117.626 55.659h-2.07v2.67h2.07c1.213.033 1.807-.437 1.78-1.41 0-.84-.593-1.26-1.78-1.26Zm.46 7.64h-3.7v-8.58h3.8c1.527.066 2.323.786 2.39 2.16 0 .84-.377 1.433-1.13 1.78 1.067.373 1.6 1.077 1.6 2.11-.093 1.627-1.08 2.47-2.96 2.53Zm-.28-3.98h-2.25v3h2.49c1.187-.034 1.797-.55 1.83-1.55 0-.967-.69-1.45-2.07-1.45Zm5.86 2.95h5.16v1.03h-6.33v-8.58h6.23v.99h-5.06v2.67h4.69v1.03h-4.69v2.86Zm12.94-5.06h-1.08c-.06-1.094-.777-1.674-2.15-1.74-1.287.033-1.93.533-1.93 1.5 0 .627.343.986 1.03 1.08l2.44.56c1.28.313 1.92 1.096 1.92 2.35-.027 1.593-1.15 2.42-3.37 2.48-1.22 0-2.08-.25-2.58-.75-.627-.467-.923-1.187-.89-2.16h1.13c.027 1.313.807 1.986 2.34 2.02 1.5-.033 2.267-.517 2.3-1.45.12-.787-.507-1.303-1.88-1.55l-1.78-.38c-1.22-.34-1.83-1.027-1.83-2.06.093-1.687 1.093-2.56 3-2.62 2.16 0 3.27.907 3.33 2.72Zm3.89-1.5h-2.91v-.99h6.94v.99h-2.9v7.59h-1.13v-7.59Zm8.58-.99h1.17v8.58h-1.17v-8.58Zm4.55 0 4.31 6.94v-6.94h1.12v8.58h-1.31l-4.36-6.94h-.05v6.94h-1.12v-8.58h1.41Zm12.75.99h-2.91v-.99h6.94v.99h-2.91v7.59h-1.12v-7.59Zm6.23 2.53h4.5v-3.52h1.17v8.58h-1.17v-3.98h-4.5v3.98h-1.17v-8.58h1.17v3.52Zm8.77 4.03h5.15v1.03h-6.33v-8.58h6.24v.99h-5.06v2.67h4.68v1.03h-4.68v2.86Zm14.76-6.1h-.05l-1.96 7.13h-1.22l-2.25-8.58h1.22l1.64 6.99h.04l1.92-6.99h1.27l1.92 6.99h.05l1.59-6.99h1.27l-2.25 8.58h-1.22l-1.97-7.13Zm13.31 2.86c-.12-2.247-1.12-3.434-3-3.56-1.907.093-2.907 1.28-3 3.56.093 2.22 1.093 3.377 3 3.47 1.88-.12 2.88-1.277 3-3.47Zm1.18 0c-.193 2.846-1.587 4.316-4.18 4.41-2.62-.093-4.027-1.563-4.22-4.41.16-2.967 1.567-4.48 4.22-4.54 2.593.093 3.987 1.607 4.18 4.54Zm5.48.57h-2.81v3.7h-1.17v-8.58h3.98c1.907 0 2.86.767 2.86 2.3 0 .933-.407 1.62-1.22 2.06.687.187 1.03.733 1.03 1.64l.1 1.55c-.033.433.107.713.42.84v.19h-1.46c-.093-.407-.153-1.127-.18-2.16.027-1.027-.49-1.54-1.55-1.54Zm.09-3.94h-2.9v2.95h2.72c1.153 0 1.73-.5 1.73-1.5 0-.967-.517-1.45-1.55-1.45Zm4.41-.94h1.17v7.55h4.36v1.03h-5.53v-8.58Zm10.17 8.58h-3.47v-8.58h3.52c2.313.127 3.517 1.517 3.61 4.17-.127 2.88-1.347 4.35-3.66 4.41Zm-.14-7.64h-2.16v6.66h2.25c1.627-.1 2.473-1.21 2.54-3.33-.033-2.16-.91-3.27-2.63-3.33Z" fill="url(#i)"/>
  </g>
</svg>
