<?xml version="1.0" encoding="UTF-8" standalone="no"?> <!-- Created with Vectornator for iOS (http://vectornator.io/) --><!DOCTYPE svg PUBLIC "-//W3C//DTD SVG 1.1//EN" "http://www.w3.org/Graphics/SVG/1.1/DTD/svg11.dtd">
<svg width="100%" xmlns:xlink="http://www.w3.org/1999/xlink" viewBox="0 0 1024 1024" xml:space="preserve" xmlns="http://www.w3.org/2000/svg" style="fill-rule:nonzero;clip-rule:evenodd;stroke-linecap:round;stroke-linejoin:round;" version="1.1" height="100%" xmlns:vectornator="http://vectornator.io">
<metadata>
<vectornator:setting key="WDSnapToEdges" value="false"/>
<vectornator:setting key="IsTimeLapseWatermarkDisabled" value="false"/>
<vectornator:setting value="false" key="WDSnapToGrid"/>
<vectornator:setting key="WDDisplayWhiteBackground" value="false"/>
<vectornator:setting value="false" key="WDOutlineMode"/>
<vectornator:setting value="false" key="WDIsolateActiveLayer"/>
<vectornator:setting key="VNPencilOnly" value="false"/>
<vectornator:setting key="VNSnapToGuides" value="true"/>
<vectornator:setting key="UndoHistoryDisabled" value="false"/>
<vectornator:setting value="Points" key="WDUnits"/>
<vectornator:setting value="false" key="WDDynamicGuides"/>
<vectornator:setting key="WDRulersVisible" value="true"/>
<vectornator:setting key="WDSnapToPoints" value="false"/>
<vectornator:setting value="true" key="VNDimensionsVisible"/>
<vectornator:setting value="true" key="WDGuidesVisible"/>
<vectornator:setting value="false" key="WDCMYKEnabledKey"/>
</metadata>
<defs/>
<g id="图层 1" vectornator:layerName="图层 1">
<path d="M203.534+316.17C205.88+316.17+205.88+316.17+208.227+316.17C208.227+304.404+209.801+309.085+205.88+301.59C207.263+300.268+207.448+297.216+209.4+297.103C221.891+296.38+234.429+297.103+246.943+297.103C246.943+298.225+246.943+298.225+246.943+299.346C248.116+299.346+248.116+299.346+249.289+299.346C249.289+301.59+249.289+301.59+249.289+303.833C255.235+303.833+262.195+302.595+262.195+309.44C268.721+309.44+266.888+311.609+266.888+318.413C270.407+318.413+270.407+318.413+273.927+318.413C273.927+319.535+273.927+319.535+273.927+320.656C275.1+320.656+275.1+320.656+276.273+320.656C276.273+321.778+276.273+321.778+276.273+322.899C285.659+322.899+285.659+322.899+295.045+322.899C295.045+319.535+295.045+319.535+295.045+316.17C293.872+316.17+293.872+316.17+292.699+316.17C292.699+289.108+299.738+268.324+299.738+245.511C302.084+244.951+302.084+244.951+304.431+244.39C304.431+227.105+323.566+189.433+343.147+189.433C343.147+186.629+343.147+186.629+343.147+183.825C346.08+183.265+346.08+183.265+349.013+182.704C349.013+191.427+354.451+189.433+363.092+189.433C363.092+190.555+363.092+190.555+363.092+191.676C369.838+191.676+367.784+187.958+367.784+181.582C385.683+179.681+394.102+188.82+391.249+167.002C390.076+167.002+390.076+167.002+388.902+167.002C388.902+165.88+388.902+165.88+388.902+164.759C387.729+164.759+387.729+164.759+386.556+164.759C386.556+162.516+386.556+162.516+386.556+160.273C399.212+157.248+437.004+146.293+437.004+161.394C446.656+161.394+449.475+165.88+456.949+165.88C456.949+167.563+456.949+167.563+456.949+169.245C462.419+169.245+463.988+170.93+463.988+175.974C466.335+175.974+466.335+175.974+468.681+175.974C468.681+179.339+468.681+179.339+468.681+182.704C471.028+182.704+471.028+182.704+473.374+182.704C473.374+184.947+473.374+184.947+473.374+187.19C474.547+187.19+474.547+187.19+475.721+187.19C475.721+188.312+475.721+188.312+475.721+189.433C476.894+189.433+476.894+189.433+478.067+189.433C478.067+190.555+478.067+190.555+478.067+191.676C479.24+191.676+479.24+191.676+480.413+191.676C480.413+193.919+480.413+193.919+480.413+196.163C481.587+196.163+481.587+196.163+482.76+196.163C482.76+197.284+482.76+197.284+482.76+198.406C483.933+198.406+483.933+198.406+485.106+198.406C485.106+202.892+485.106+202.892+485.106+207.378C486.28+207.378+486.28+207.378+487.453+207.378C487.453+208.5+487.453+208.5+487.453+209.621C488.626+209.621+488.626+209.621+489.799+209.621C489.799+213.547+489.799+213.547+489.799+217.472C492.146+217.472+492.146+217.472+494.492+217.472C494.492+224.202+494.492+224.202+494.492+230.931C495.665+230.931+495.665+230.931+496.839+230.931C496.839+233.174+496.839+233.174+496.839+235.417C498.598+235.417+498.598+235.417+500.358+235.417C500.358+239.078+500.247+244.39+505.051+244.39C505.051+245.511+505.051+245.511+505.051+246.633C506.224+246.633+506.224+246.633+507.397+246.633C507.397+247.755+507.397+247.755+507.397+248.876C508.571+248.876+508.571+248.876+509.744+248.876C509.744+249.998+509.744+249.998+509.744+251.119C522.006+251.119+520.27+246.948+521.476+235.417C520.303+235.417+520.303+235.417+519.13+235.417C519.13+231.492+519.13+231.492+519.13+227.566C521.476+227.006+521.476+227.006+523.823+226.445C523.823+222.519+523.823+222.519+523.823+218.594C526.169+218.033+526.169+218.033+528.515+217.472C528.515+208.302+536.652+185.246+547.287+182.704C547.287+173.065+560.382+161.394+569.578+161.394C569.578+152.14+585.778+147.935+593.042+147.935C593.042+146.253+593.042+146.253+593.042+144.571C605.931+142.811+616.904+134.477+629.412+134.477C629.412+135.598+629.412+135.598+629.412+136.72C630.585+136.72+630.585+136.72+631.759+136.72C631.759+148.757+645.362+143.352+658.743+144.571C657.569+145.132+657.569+145.132+656.396+145.692C676.561+145.692+673.397+149.157+675.168+132.234C678.389+132.234+676.815+132.568+679.861+131.112C679.861+132.794+679.861+132.794+679.861+134.477C681.034+134.477+681.034+134.477+682.207+134.477C682.207+135.598+682.207+135.598+682.207+136.72C688.073+136.72+688.073+136.72+693.939+136.72C693.939+137.841+693.939+137.841+693.939+138.963C695.112+138.963+695.112+138.963+696.286+138.963C696.286+140.084+696.286+140.084+696.286+141.206C699.219+141.206+699.219+141.206+702.152+141.206C702.152+143.449+702.152+143.449+702.152+145.692C704.498+145.692+704.498+145.692+706.845+145.692C706.845+146.814+706.845+146.814+706.845+147.935C709.191+147.935+709.191+147.935+711.537+147.935C711.537+149.057+711.537+149.057+711.537+150.179C712.711+150.179+712.711+150.179+713.884+150.179C713.884+151.3+713.884+151.3+713.884+152.422C717.404+152.422+717.404+152.422+720.923+152.422C720.923+154.665+720.923+154.665+720.923+156.908C723.27+156.908+723.27+156.908+725.616+156.908C725.616+158.029+725.616+158.029+725.616+159.151C726.789+159.151+726.789+159.151+727.963+159.151C727.963+160.273+727.963+160.273+727.963+161.394C729.136+161.394+729.136+161.394+730.309+161.394C730.309+163.077+730.309+163.077+730.309+164.759C732.655+164.759+732.655+164.759+735.002+164.759C735.002+167.002+735.002+167.002+735.002+169.245C736.175+169.245+736.175+169.245+737.348+169.245C737.348+170.367+737.348+170.367+737.348+171.488C738.521+171.488+738.521+171.488+739.695+171.488C739.695+173.731+739.695+173.731+739.695+175.974C742.041+175.974+742.041+175.974+744.388+175.974C744.388+179.759+744.198+177.492+745.561+182.704C747.907+182.704+747.907+182.704+750.254+182.704C750.254+186.069+750.254+186.069+750.254+189.433C751.427+189.433+751.427+189.433+752.6+189.433C752.6+190.555+752.6+190.555+752.6+191.676C753.773+191.676+753.773+191.676+754.947+191.676C754.947+192.798+754.947+192.798+754.947+193.919C756.12+193.919+756.12+193.919+757.293+193.919C757.293+195.041+757.293+195.041+757.293+196.163C758.466+196.163+758.466+196.163+759.639+196.163C759.639+198.406+759.639+198.406+759.639+200.649C760.813+200.649+760.813+200.649+761.986+200.649C761.986+207.939+761.986+207.939+761.986+215.229C763.159+215.229+763.159+215.229+764.332+215.229C764.332+216.351+764.332+216.351+764.332+217.472C765.506+217.472+765.506+217.472+766.679+217.472C766.679+224.202+766.679+224.202+766.679+230.931C767.852+230.931+767.852+230.931+769.025+230.931C769.025+233.174+769.025+233.174+769.025+235.417C770.198+235.417+770.198+235.417+771.372+235.417C771.372+238.782+771.372+238.782+771.372+242.147C772.545+242.147+772.545+242.147+773.718+242.147C773.718+244.39+773.718+244.39+773.718+246.633C774.891+246.633+774.891+246.633+776.064+246.633C776.064+247.755+776.064+247.755+776.064+248.876C777.238+248.876+777.238+248.876+778.411+248.876C778.411+249.998+778.411+249.998+778.411+251.119C794.9+251.119+786.06+248.876+793.663+248.876C793.663+247.194+793.663+247.194+793.663+245.511C798.356+244.951+798.356+244.951+803.049+244.39C803.049+242.707+803.049+242.707+803.049+241.025C821.82+240.464+821.82+240.464+840.591+239.904C840.591+241.025+840.591+241.025+840.591+242.147C844.698+242.147+844.698+242.147+848.804+242.147C848.804+243.268+848.804+243.268+848.804+244.39C851.15+244.39+851.15+244.39+853.497+244.39C853.497+245.511+853.497+245.511+853.497+246.633C855.843+246.633+855.843+246.633+858.19+246.633C858.19+247.755+858.19+247.755+858.19+248.876C859.363+248.876+859.363+248.876+860.536+248.876C860.536+249.998+860.536+249.998+860.536+251.119C862.883+251.119+862.883+251.119+865.229+251.119C865.229+254.484+865.229+254.484+865.229+257.849C866.402+257.849+866.402+257.849+867.576+257.849C867.576+266.535+870.024+264.529+865.229+266.821C868.581+268.423+868.581+269.705+865.229+271.307C871.3+274.209+865.54+276.989+874.615+279.158C874.615+280.28+874.615+280.28+874.615+281.401C875.788+281.401+875.788+281.401+876.961+281.401C876.961+284.766+876.961+284.766+876.961+288.131C878.134+288.131+878.134+288.131+879.308+288.131C879.894+293.739+879.894+293.739+880.481+299.346C887.205+300.632+884.563+301.321+888.693+299.346C888.693+302.711+888.693+302.711+888.693+306.076C889.867+306.076+889.867+306.076+891.04+306.076C891.04+319.954+889.997+314.423+892.213+322.899C893.386+322.899+893.386+322.899+894.56+322.899C894.56+328.507+894.56+328.507+894.56+334.115C895.733+334.115+895.733+334.115+896.906+334.115C896.906+370.756+898.604+411.118+886.347+446.271C883.557+454.274+867.576+467.464+867.576+476.553C855.765+476.553+848.804+487.492+848.804+497.863C849.977+497.863+849.977+497.863+851.15+497.863C851.15+498.985+851.15+498.985+851.15+500.106C852.324+500.106+852.324+500.106+853.497+500.106C853.497+501.228+853.497+501.228+853.497+502.349C862.883+502.349+862.883+502.349+872.268+502.349C872.268+506.836+872.268+506.836+872.268+511.322C873.442+511.322+873.442+511.322+874.615+511.322C874.615+513.565+874.615+513.565+874.615+515.808C875.788+515.808+875.788+515.808+876.961+515.808C876.961+522.548+874.542+527.024+881.654+527.024C881.654+544.684+886.901+541.339+879.308+544.969C881.068+545.529+881.068+545.529+882.827+546.09C881.304+549.002+881.654+547.498+881.654+550.577C870.962+550.577+877.506+565.027+862.883+568.522C862.883+565.157+862.883+565.157+862.883+561.792C861.709+561.792+861.709+561.792+860.536+561.792C860.536+558.427+860.536+558.427+860.536+555.063C859.363+555.063+859.363+555.063+858.19+555.063C858.19+552.82+858.19+552.82+858.19+550.577C857.017+550.577+857.017+550.577+855.843+550.577C855.843+547.476+854.301+544.679+853.497+541.604C851.15+541.604+851.15+541.604+848.804+541.604C848.804+539.922+848.804+539.922+848.804+538.239C835.421+538.239+793.663+539.262+793.663+557.306C792.49+557.306+792.49+557.306+791.316+557.306C788.194+575.214+783.104+579.709+783.104+603.29C784.277+603.29+784.277+603.29+785.45+603.29C785.45+605.533+785.45+605.533+785.45+607.776C786.623+607.776+786.623+607.776+787.797+607.776C787.797+611.141+787.797+611.141+787.797+614.506C790.143+614.506+790.143+614.506+792.49+614.506C792.49+615.627+792.49+615.627+792.49+616.749C793.663+616.749+793.663+616.749+794.836+616.749C794.836+617.87+794.836+617.87+794.836+618.992C796.596+618.992+796.596+618.992+798.356+618.992C798.356+620.113+798.356+620.113+798.356+621.235C803.903+621.235+807.145+622.214+812.434+623.478C814.603+619.332+830.551+620.696+835.899+618.992C839.88+617.723+841.94+610.019+848.804+610.019C848.804+607.215+848.804+607.215+848.804+604.412C851.15+603.851+851.15+603.851+853.497+603.29C853.497+597.303+860.536+589.517+860.536+583.102C869.075+581.469+871.008+585.144+879.308+586.467C879.308+584.784+879.308+584.784+879.308+583.102C882.827+582.541+882.827+582.541+886.347+581.98C886.347+593.616+887.201+588.81+885.174+596.561C884.587+595.439+884.587+595.439+884.001+594.317C882.725+594.927+874.615+615.366+874.615+618.992C873.442+618.992+873.442+618.992+872.268+618.992C872.268+617.87+872.268+617.87+872.268+616.749C868.873+618.372+869.922+617.034+869.922+621.235C868.162+621.235+868.162+621.235+866.402+621.235C865.379+629.058+860.536+632.048+860.536+638.058C854.344+638.058+850.842+644.788+844.111+644.788C843.525+647.031+843.525+647.031+842.938+649.274C837.072+649.274+837.072+649.274+831.206+649.274C850.13+631.183+812.434+614.142+812.434+642.545C808.04+642.545+809.439+641.542+807.741+644.788C810.088+644.788+810.088+644.788+812.434+644.788C812.434+648.153+812.434+648.153+812.434+651.517C799.382+651.517+807.798+651.49+800.702+654.882C805.638+657.241+805.639+663.738+800.702+666.098C805.418+668.352+799.503+695.258+794.836+695.258C794.249+697.501+794.249+697.501+793.663+699.744C792.49+699.744+792.49+699.744+791.316+699.744C790.534+702.735+789.752+705.726+788.97+708.717C787.797+708.717+787.797+708.717+786.623+708.717C783.683+719.96+771.372+727.586+771.372+738.999C770.198+738.999+770.198+738.999+769.025+738.999C769.025+737.878+769.025+737.878+769.025+736.756C762.903+739.682+759.639+750.915+759.639+756.944C758.466+756.944+758.466+756.944+757.293+756.944C757.293+755.823+757.293+755.823+757.293+754.701C745.245+766.219+746.69+780.518+730.309+788.348C737.256+791.668+684.553+830.697+684.553+839.94C681.62+839.94+681.62+839.94+678.687+839.94C678.101+842.183+678.101+842.183+677.514+844.426C678.687+844.426+678.687+844.426+679.861+844.426C679.861+846.669+679.861+846.669+679.861+848.912C672.7+848.912+665.782+847.875+665.782+855.642C659.321+855.642+654.05+855.532+654.05+862.371C642.62+862.371+595.077+875.006+588.35+881.438C590.696+881.998+590.696+881.998+593.042+882.559C571.505+882.94+550.046+885.3+528.515+885.924C503.107+886.66+477.676+885.924+452.256+885.924C452.256+884.802+452.256+884.802+452.256+883.681C439.937+883.681+439.937+883.681+427.619+883.681C427.619+882.559+427.619+882.559+427.619+881.438C424.099+881.438+424.099+881.438+420.579+881.438C420.579+880.316+420.579+880.316+420.579+879.194C411.78+879.194+411.78+879.194+402.981+879.194C402.981+878.073+402.981+878.073+402.981+876.951C396.585+876.951+390.512+875.712+384.21+874.708C384.21+873.587+384.21+873.587+384.21+872.465C378.343+872.465+378.343+872.465+372.477+872.465C372.477+871.344+372.477+871.344+372.477+870.222C370.131+870.222+370.131+870.222+367.784+870.222C367.784+869.1+367.784+869.1+367.784+867.979C366.611+867.979+366.611+867.979+365.438+867.979C365.438+866.857+365.438+866.857+365.438+865.736C363.092+865.736+363.092+865.736+360.745+865.736C360.745+864.053+360.745+864.053+360.745+862.371C357.812+862.371+357.812+862.371+354.879+862.371C354.879+858.383+354.485+857.885+350.186+857.885C350.186+856.763+350.186+856.763+350.186+855.642C349.013+855.642+349.013+855.642+347.84+855.642C347.84+854.52+347.84+854.52+347.84+853.399C345.493+853.399+345.493+853.399+343.147+853.399C343.147+852.277+343.147+852.277+343.147+851.155C341.974+851.155+341.974+851.155+340.8+851.155C340.8+850.034+340.8+850.034+340.8+848.912C334.274+848.912+336.108+846.744+336.108+839.94C333.761+839.94+333.761+839.94+331.415+839.94C331.415+838.818+331.415+838.818+331.415+837.697C330.241+837.697+330.241+837.697+329.068+837.697C329.068+836.575+329.068+836.575+329.068+835.454C327.895+835.454+327.895+835.454+326.722+835.454C326.722+833.21+326.722+833.21+326.722+830.967C324.375+830.967+324.375+830.967+322.029+830.967C322.029+828.724+322.029+828.724+322.029+826.481C320.856+826.481+320.856+826.481+319.683+826.481C319.683+825.359+319.683+825.359+319.683+824.238C318.509+824.238+318.509+824.238+317.336+824.238C317.336+821.434+317.336+821.434+317.336+818.63C314.403+818.63+314.403+818.63+311.47+818.63C311.47+816.387+311.47+816.387+311.47+814.144C300.909+814.144+308.788+800.685+299.738+800.685C299.738+798.442+299.738+798.442+299.738+796.199C298.565+796.199+298.565+796.199+297.391+796.199C297.391+792.834+297.391+792.834+297.391+789.469C296.218+789.469+296.218+789.469+295.045+789.469C295.045+788.348+295.045+788.348+295.045+787.226C293.872+787.226+293.872+787.226+292.699+787.226C292.699+784.983+292.699+784.983+292.699+782.74C291.525+782.74+291.525+782.74+290.352+782.74C290.352+780.497+290.352+780.497+290.352+778.254C288.592+778.254+288.592+778.254+286.832+778.254C286.832+773.987+284.391+770.042+283.313+765.917C282.14+765.917+282.14+765.917+280.966+765.917C280.966+763.673+280.966+763.673+280.966+761.43C279.793+761.43+279.793+761.43+278.62+761.43C278.62+756.944+278.62+756.944+278.62+752.458C276.273+752.458+276.273+752.458+273.927+752.458C273.927+747.972+273.927+747.972+273.927+743.485C272.754+743.485+272.754+743.485+271.581+743.485C271.581+742.364+271.581+742.364+271.581+741.242C270.407+741.242+270.407+741.242+269.234+741.242C269.234+740.121+269.234+740.121+269.234+738.999C268.061+738.999+268.061+738.999+266.888+738.999C266.888+735.634+266.888+735.634+266.888+732.27C265.128+732.27+265.128+732.27+263.368+732.27C263.368+724.358+264.11+727.668+262.195+722.176C261.022+722.176+261.022+722.176+259.848+722.176C259.848+719.933+259.848+719.933+259.848+717.689C258.675+717.689+258.675+717.689+257.502+717.689C257.502+712.452+254.514+704.832+253.982+699.744C252.809+699.744+252.809+699.744+251.636+699.744C251.636+698.623+251.636+698.623+251.636+697.501C250.463+697.501+250.463+697.501+249.289+697.501C249.289+693.717+249.479+695.983+248.116+690.772C246.943+690.772+246.943+690.772+245.77+690.772C245.77+684.393+245.915+688.52+244.597+678.435C243.423+678.995+243.423+678.995+242.25+679.556C240.08+673.332+241.23+677.365+239.904+667.219C238.73+667.219+238.73+667.219+237.557+667.219C237.557+661.611+237.557+661.611+237.557+656.003C236.384+656.003+236.384+656.003+235.211+656.003C235.211+653.76+235.211+653.76+235.211+651.517C234.038+651.517+234.038+651.517+232.864+651.517C232.864+649.274+232.864+649.274+232.864+647.031C231.691+647.031+231.691+647.031+230.518+647.031C230.518+644.788+230.518+644.788+230.518+642.545C229.345+642.545+229.345+642.545+228.171+642.545C228.171+640.302+228.171+640.302+228.171+638.058C226.998+638.058+226.998+638.058+225.825+638.058C225.825+633.011+225.825+633.011+225.825+627.964C224.652+627.964+224.652+627.964+223.479+627.964C223.479+621.235+223.479+621.235+223.479+614.506C222.305+614.506+222.305+614.506+221.132+614.506C221.132+613.384+221.132+613.384+221.132+612.262C219.959+612.262+219.959+612.262+218.786+612.262C218.786+610.019+218.786+610.019+218.786+607.776C217.613+607.776+217.613+607.776+216.439+607.776C216.439+602.168+216.439+602.168+216.439+596.561C215.853+598.804+215.853+598.804+215.266+601.047C214.679+597.682+214.679+597.682+214.093+594.317C212.92+594.317+212.92+594.317+211.746+594.317C211.746+586.144+207.329+576.832+205.88+568.522C204.707+568.522+204.707+568.522+203.534+568.522C203.534+563.157+201.6+555.304+201.187+550.577C200.014+550.577+200.014+550.577+198.841+550.577C198.841+547.212+198.841+547.212+198.841+543.847C197.668+543.847+197.668+543.847+196.495+543.847C196.495+536.557+196.495+536.557+196.495+529.267C195.321+529.267+195.321+529.267+194.148+529.267C194.148+511.322+193.383+493.362+194.148+475.432C194.264+472.712+196.495+470.303+196.495+467.581C191.802+467.581+191.802+467.581+187.109+467.581C187.109+466.459+187.109+466.459+187.109+465.338C185.936+465.338+185.936+465.338+184.762+465.338C184.762+464.216+184.762+464.216+184.762+463.095C183.589+463.095+183.589+463.095+182.416+463.095C182.416+460.851+182.416+460.851+182.416+458.608C181.243+458.608+181.243+458.608+180.07+458.608C180.07+457.487+180.07+457.487+180.07+456.365C178.896+456.365+178.896+456.365+177.723+456.365C177.723+454.122+177.723+454.122+177.723+451.879C176.55+451.879+176.55+451.879+175.377+451.879C175.377+450.757+175.377+450.757+175.377+449.636C173.617+449.636+173.617+449.636+171.857+449.636C171.857+445.486+172.01+448.126+170.684+441.785C169.511+441.785+169.511+441.785+168.337+441.785C168.337+440.663+168.337+440.663+168.337+439.542C167.164+439.542+167.164+439.542+165.991+439.542C165.991+434.069+164.389+429.532+163.644+423.84C160.249+425.463+161.298+424.126+161.298+428.326C160.516+420.849+159.734+413.372+158.952+405.895C156.019+405.895+156.019+405.895+153.086+405.895C153.086+399.726+153.086+399.726+153.086+393.558C151.912+393.558+151.912+393.558+150.739+393.558C150.739+362.143+159.339+349.085+164.818+322.899C171.27+322.899+171.27+322.899+177.723+322.899C177.723+324.582+177.723+324.582+177.723+326.264C186.374+326.264+182.486+325.72+189.455+327.385C189.455+316.843+203.534+325.13+203.534+316.17Z" stroke-linecap="round" stroke-width="1" fill="#835519" stroke-linejoin="round" stroke="#835519" opacity="1"/>
<path fill="#825e43" d="M901.599+603.29C901.012+601.608+901.012+601.608+900.426+599.925C899.486+608.006+898.216+613.297+891.04+617.87C892.965+623.392+892.416+620.069+891.04+627.964C887.287+627.964+858.19+660.622+858.19+662.733C846.028+662.733+839.068+669.462+825.34+669.462C824.753+676.752+824.753+676.752+824.166+684.043C823.58+681.239+823.58+681.239+822.993+678.435C818.06+683.151+819.474+694.301+819.474+699.744C818.3+699.744+818.3+699.744+817.127+699.744C817.127+698.623+817.127+698.623+817.127+697.501C811.002+700.429+778.411+755.207+778.411+761.43C774.229+761.43+774.662+764.55+773.718+768.16C766.112+768.16+761.452+786.071+756.12+789.469C756.706+790.591+756.706+790.591+757.293+791.713C756.12+791.713+756.12+791.713+754.947+791.713C754.947+790.591+754.947+790.591+754.947+789.469C753.052+793.091+753.985+790.902+752.6+796.199C748.162+796.199+744.388+801.142+744.388+805.171C740.935+805.171+739.695+806.357+739.695+809.658C735.269+809.658+732.655+815.191+732.655+818.63C729.009+818.63+713.884+835.376+713.884+838.818C703.753+842.046+696.229+854.182+686.9+860.128C688.073+860.128+688.073+860.128+689.246+860.128C689.246+861.249+689.246+861.249+689.246+862.371C683.347+862.371+677.514+866.25+677.514+872.465C668.731+872.465+662.66+875.079+654.05+879.194C654.636+880.316+654.636+880.316+655.223+881.438C650.971+880.083+650.761+880.767+647.01+882.559C648.184+882.559+648.184+882.559+649.357+882.559C641.226+883.855+644+882.073+639.971+885.924C642.904+885.924+642.904+885.924+645.837+885.924C645.837+887.045+645.837+887.045+645.837+888.167C640.86+888.167+625.605+888.442+622.373+891.532C623.546+891.532+623.546+891.532+624.719+891.532C624.719+893.214+624.719+893.214+624.719+894.896C602.087+894.896+580.426+900.504+556.673+900.504C559.606+901.065+559.606+901.065+562.539+901.626C506.071+902.268+468.539+903.151+418.233+897.139C418.233+896.018+418.233+896.018+418.233+894.896C409.434+894.896+409.434+894.896+400.635+894.896C400.635+893.775+400.635+893.775+400.635+892.653C393.009+892.653+393.009+892.653+385.383+892.653C385.969+891.532+385.969+891.532+386.556+890.41C383.036+890.41+383.036+890.41+379.517+890.41C379.517+889.289+379.517+889.289+379.517+888.167C375.997+888.167+375.997+888.167+372.477+888.167C372.477+887.045+372.477+887.045+372.477+885.924C363.04+884.635+366.888+885.638+360.745+883.681C360.745+882.559+360.745+882.559+360.745+881.438C357.812+881.438+357.812+881.438+354.879+881.438C354.879+880.316+354.879+880.316+354.879+879.194C353.706+879.194+353.706+879.194+352.533+879.194C352.533+878.073+352.533+878.073+352.533+876.951C350.186+876.951+350.186+876.951+347.84+876.951C347.84+875.83+347.84+875.83+347.84+874.708C345.493+874.708+345.493+874.708+343.147+874.708C343.147+873.587+343.147+873.587+343.147+872.465C337.01+872.465+335.147+866.551+329.068+864.614C329.068+858.527+324.653+856.824+326.722+848.912C311.95+848.912+299.114+837.555+295.045+821.995C286.99+821.995+283.88+796.199+276.273+796.199C276.273+789.565+270.651+781.66+269.234+774.889C268.061+775.45+268.061+775.45+266.888+776.011C263.206+768.972+258.817+760.002+257.502+752.458C256.329+752.458+256.329+752.458+255.156+752.458C255.156+747.941+255.284+750.953+253.982+743.485C252.222+743.485+252.222+743.485+250.463+743.485C250.463+735.566+246.16+733.012+244.597+725.54C243.423+725.54+243.423+725.54+242.25+725.54C242.25+721.47+243.509+715.446+237.557+715.446C237.557+710.292+235.883+704.882+235.211+699.744C234.038+699.744+234.038+699.744+232.864+699.744C232.864+694.057+235.211+697.26+235.211+690.772C232.864+690.772+232.864+690.772+230.518+690.772C230.518+688.529+230.518+688.529+230.518+686.286C228.758+686.286+228.758+686.286+226.998+686.286C228.521+683.374+228.171+684.879+228.171+681.799C226.998+681.799+226.998+681.799+225.825+681.799C225.825+676.337+224.108+670.394+223.479+664.976C218.58+664.976+219.497+660.084+218.786+656.003C217.613+656.003+217.613+656.003+216.439+656.003C216.439+647.733+217.008+651.45+215.266+644.788C214.093+644.788+214.093+644.788+212.92+644.788C212.92+638.409+213.065+642.536+211.746+632.451C209.987+632.451+209.987+632.451+208.227+632.451C206.553+621.248+207.359+627.227+205.88+614.506C204.707+614.506+204.707+614.506+203.534+614.506C203.534+605.724+197.548+595.53+196.495+586.467C195.321+586.467+195.321+586.467+194.148+586.467C194.148+549.353+168.611+516.145+182.416+476.553C176.997+474.827+171.047+467.581+168.337+467.581C168.337+466.459+168.337+466.459+168.337+465.338C166.578+465.338+166.578+465.338+164.818+465.338C164.818+455.547+147.451+437.273+146.046+423.84C144.873+423.84+144.873+423.84+143.7+423.84C143.7+422.718+143.7+422.718+143.7+421.597C142.527+421.597+142.527+421.597+141.353+421.597C141.353+403.626+134.314+384.75+134.314+365.519C134.314+353.961+143.7+345.951+143.7+335.236C147.959+333.879+148.783+332.247+150.739+328.507C149.566+328.507+149.566+328.507+148.393+328.507C148.393+319.977+154.803+323.636+164.818+322.899C164.818+333.859+154.249+339.8+153.086+348.695C150.987+364.747+150.739+376.159+150.739+393.558C151.912+393.558+151.912+393.558+153.086+393.558C153.086+399.726+153.086+399.726+153.086+405.895C156.019+405.895+156.019+405.895+158.952+405.895C158.952+420.868+158.562+413.39+160.125+428.326C161.575+424.168+160.192+425.49+163.644+423.84C163.644+432.428+164.145+432.484+165.991+439.542C167.164+439.542+167.164+439.542+168.337+439.542C168.337+440.663+168.337+440.663+168.337+441.785C169.511+441.785+169.511+441.785+170.684+441.785C170.684+447.299+169.421+449.636+175.377+449.636C175.377+450.757+175.377+450.757+175.377+451.879C176.55+451.879+176.55+451.879+177.723+451.879C177.723+454.122+177.723+454.122+177.723+456.365C178.896+456.365+178.896+456.365+180.07+456.365C180.07+457.487+180.07+457.487+180.07+458.608C181.243+458.608+181.243+458.608+182.416+458.608C182.416+460.851+182.416+460.851+182.416+463.095C183.589+463.095+183.589+463.095+184.762+463.095C184.762+464.216+184.762+464.216+184.762+465.338C185.936+465.338+185.936+465.338+187.109+465.338C187.109+466.459+187.109+466.459+187.109+467.581C191.802+467.581+191.802+467.581+196.495+467.581C196.495+470.303+194.264+472.712+194.148+475.432C193.383+493.362+194.148+511.322+194.148+529.267C195.321+529.267+195.321+529.267+196.495+529.267C196.495+536.557+196.495+536.557+196.495+543.847C197.668+543.847+197.668+543.847+198.841+543.847C198.841+547.212+198.841+547.212+198.841+550.577C200.014+550.577+200.014+550.577+201.187+550.577C201.187+552.983+198.347+568.522+205.88+568.522C205.88+574.07+206.18+594.317+214.093+594.317C214.093+597.682+214.093+597.682+214.093+601.047C214.679+599.365+214.679+599.365+215.266+597.682C215.853+602.729+215.853+602.729+216.439+607.776C217.613+607.776+217.613+607.776+218.786+607.776C218.786+610.019+218.786+610.019+218.786+612.262C219.959+612.262+219.959+612.262+221.132+612.262C221.132+613.384+221.132+613.384+221.132+614.506C222.305+614.506+222.305+614.506+223.479+614.506C223.479+621.235+223.479+621.235+223.479+627.964C224.652+627.964+224.652+627.964+225.825+627.964C225.825+633.011+225.825+633.011+225.825+638.058C226.998+638.058+226.998+638.058+228.171+638.058C228.171+640.302+228.171+640.302+228.171+642.545C229.345+642.545+229.345+642.545+230.518+642.545C230.518+644.788+230.518+644.788+230.518+647.031C231.691+647.031+231.691+647.031+232.864+647.031C232.864+649.274+232.864+649.274+232.864+651.517C234.038+651.517+234.038+651.517+235.211+651.517C235.211+653.76+235.211+653.76+235.211+656.003C236.384+656.003+236.384+656.003+237.557+656.003C237.557+661.611+237.557+661.611+237.557+667.219C238.73+667.219+238.73+667.219+239.904+667.219C239.904+677.374+238.914+673.354+241.077+679.556C242.25+678.995+242.25+678.995+243.423+678.435C244.75+688.58+243.599+684.548+245.77+690.772C246.943+690.772+246.943+690.772+248.116+690.772C248.116+694.506+247.155+697.501+251.636+697.501C251.636+698.623+251.636+698.623+251.636+699.744C252.809+699.744+252.809+699.744+253.982+699.744C253.982+702.871+252.477+717.689+259.848+717.689C259.848+719.933+259.848+719.933+259.848+722.176C261.022+722.176+261.022+722.176+262.195+722.176C262.195+727.814+262.002+724.434+263.368+732.27C265.128+732.27+265.128+732.27+266.888+732.27C266.888+735.634+266.888+735.634+266.888+738.999C268.061+738.999+268.061+738.999+269.234+738.999C269.234+740.121+269.234+740.121+269.234+741.242C270.407+741.242+270.407+741.242+271.581+741.242C271.581+742.364+271.581+742.364+271.581+743.485C272.754+743.485+272.754+743.485+273.927+743.485C273.927+747.972+273.927+747.972+273.927+752.458C276.273+752.458+276.273+752.458+278.62+752.458C278.62+756.944+278.62+756.944+278.62+761.43C279.793+761.43+279.793+761.43+280.966+761.43C280.966+763.673+280.966+763.673+280.966+765.917C282.14+765.917+282.14+765.917+283.313+765.917C283.313+771.064+284.118+778.254+290.352+778.254C290.352+780.497+290.352+780.497+290.352+782.74C291.525+782.74+291.525+782.74+292.699+782.74C292.699+784.983+292.699+784.983+292.699+787.226C293.872+787.226+293.872+787.226+295.045+787.226C295.045+788.348+295.045+788.348+295.045+789.469C296.218+789.469+296.218+789.469+297.391+789.469C297.391+792.834+297.391+792.834+297.391+796.199C298.565+796.199+298.565+796.199+299.738+796.199C299.738+798.442+299.738+798.442+299.738+800.685C300.911+800.685+300.911+800.685+302.084+800.685C302.084+804.632+304.775+809.06+305.604+813.022C309.187+813.022+307.208+812.786+311.47+814.144C311.47+816.387+311.47+816.387+311.47+818.63C314.403+818.63+314.403+818.63+317.336+818.63C317.336+821.434+317.336+821.434+317.336+824.238C318.509+824.238+318.509+824.238+319.683+824.238C319.683+825.359+319.683+825.359+319.683+826.481C320.856+826.481+320.856+826.481+322.029+826.481C322.029+828.724+322.029+828.724+322.029+830.967C324.375+830.967+324.375+830.967+326.722+830.967C326.722+833.21+326.722+833.21+326.722+835.454C327.895+835.454+327.895+835.454+329.068+835.454C329.068+836.575+329.068+836.575+329.068+837.697C330.241+837.697+330.241+837.697+331.415+837.697C331.415+838.818+331.415+838.818+331.415+839.94C333.761+839.94+333.761+839.94+336.108+839.94C336.108+843.865+336.108+843.865+336.108+847.791C339.323+847.791+340.8+847.817+340.8+851.155C341.974+851.155+341.974+851.155+343.147+851.155C343.147+852.277+343.147+852.277+343.147+853.399C345.493+853.399+345.493+853.399+347.84+853.399C347.84+854.52+347.84+854.52+347.84+855.642C349.013+855.642+349.013+855.642+350.186+855.642C350.186+856.763+350.186+856.763+350.186+857.885C351.946+857.885+351.946+857.885+353.706+857.885C353.706+863.157+354.955+862.371+360.745+862.371C360.745+864.053+360.745+864.053+360.745+865.736C363.092+865.736+363.092+865.736+365.438+865.736C365.438+866.857+365.438+866.857+365.438+867.979C366.611+867.979+366.611+867.979+367.784+867.979C367.784+869.1+367.784+869.1+367.784+870.222C370.131+870.222+370.131+870.222+372.477+870.222C372.477+871.344+372.477+871.344+372.477+872.465C378.343+872.465+378.343+872.465+384.21+872.465C384.21+873.587+384.21+873.587+384.21+874.708C390.831+874.708+396.57+875.419+402.981+876.951C402.981+878.073+402.981+878.073+402.981+879.194C411.78+879.194+411.78+879.194+420.579+879.194C420.579+880.316+420.579+880.316+420.579+881.438C424.099+881.438+424.099+881.438+427.619+881.438C427.619+882.559+427.619+882.559+427.619+883.681C439.937+883.681+439.937+883.681+452.256+883.681C452.256+884.802+452.256+884.802+452.256+885.924C477.676+885.924+503.107+886.66+528.515+885.924C550.029+885.301+571.519+883.681+593.042+883.681C590.696+883.12+590.696+883.12+588.35+882.559C592.265+876.945+643.578+862.371+654.05+862.371C654.05+855.532+659.321+855.642+665.782+855.642C665.782+847.875+672.7+848.912+679.861+848.912C679.861+846.669+679.861+846.669+679.861+844.426C678.687+844.426+678.687+844.426+677.514+844.426C677.514+842.744+677.514+842.744+677.514+841.061C681.034+840.501+681.034+840.501+684.553+839.94C684.553+824.645+729.092+803.095+732.655+789.469C731.482+789.469+731.482+789.469+730.309+789.469C741.698+778.582+748.249+769.75+756.12+754.701C757.643+757.613+756.419+756.944+759.639+756.944C759.639+751.059+762.198+740.019+769.025+736.756C769.025+737.878+769.025+737.878+769.025+738.999C770.198+738.999+770.198+738.999+771.372+738.999C771.372+727.298+785.45+721.083+785.45+709.838C787.21+709.278+787.21+709.278+788.97+708.717C788.97+703.886+788.506+701.388+793.663+699.744C793.663+698.062+793.663+698.062+793.663+696.38C800.792+694.108+802.375+674.306+803.049+667.219C801.875+667.219+801.875+667.219+800.702+667.219C803.285+662.28+801.767+665.806+803.049+656.003C801.875+656.003+801.875+656.003+800.702+656.003C806.116+650.828+801.654+651.517+812.434+651.517C812.434+648.153+812.434+648.153+812.434+644.788C810.088+644.788+810.088+644.788+807.741+644.788C809.439+641.542+808.04+642.545+812.434+642.545C812.434+630.884+819.03+629.227+830.033+625.721C830.033+633.555+839.143+641.686+831.206+649.274C837.072+649.274+837.072+649.274+842.938+649.274C842.938+647.592+842.938+647.592+842.938+645.909C849.706+644.615+854.634+638.058+860.536+638.058C860.536+631.204+865.229+631.327+865.229+622.357C867.576+621.796+867.576+621.796+869.922+621.235C869.922+617.034+868.873+618.372+872.268+616.749C872.268+617.87+872.268+617.87+872.268+618.992C873.442+618.992+873.442+618.992+874.615+618.992C874.615+615.398+881.784+595.377+884.001+594.317C884.001+595.439+884.001+595.439+884.001+596.561C886.417+589.632+885.051+594.372+886.347+581.98C883.414+581.98+883.414+581.98+880.481+581.98C879.894+584.223+879.894+584.223+879.308+586.467C876.375+586.467+876.375+586.467+873.442+586.467C879.813+583.421+883.711+575.251+892.213+575.251C892.213+569.378+896.786+569.757+900.426+566.278C901.113+578.112+899.854+591.612+901.599+603.29Z" stroke="#825e43" stroke-width="1" stroke-linejoin="round" opacity="1" stroke-linecap="round"/>
<path stroke="#835e42" stroke-linecap="round" d="M529.689+343.087C546.896+343.087+564.107+342.73+581.31+343.087C584.356+343.151+583.657+344.619+583.657+346.452C590.375+346.452+596.998+347.643+603.601+348.695C603.601+349.817+603.601+349.817+603.601+350.938C608.612+350.938+622.373+348.639+622.373+355.425C625.893+355.425+625.893+355.425+629.412+355.425C629.412+356.546+629.412+356.546+629.412+357.668C634.105+357.668+634.105+357.668+638.798+357.668C638.798+358.789+638.798+358.789+638.798+359.911C642.904+359.911+642.904+359.911+647.01+359.911C647.01+362.154+647.01+362.154+647.01+364.397C650.53+364.397+650.53+364.397+654.05+364.397C654.05+365.519+654.05+365.519+654.05+366.64C659.916+366.64+659.916+366.64+665.782+366.64C665.782+368.883+665.782+368.883+665.782+371.126C668.128+371.126+668.128+371.126+670.475+371.126C670.475+372.248+670.475+372.248+670.475+373.37C673.718+373.37+676.644+374.844+679.861+375.613C679.861+376.734+679.861+376.734+679.861+377.856C682.207+377.856+682.207+377.856+684.553+377.856C684.553+378.977+684.553+378.977+684.553+380.099C686.9+380.099+686.9+380.099+689.246+380.099C689.246+381.221+689.246+381.221+689.246+382.342C692.766+382.342+692.766+382.342+696.286+382.342C696.286+383.464+696.286+383.464+696.286+384.585C699.219+384.585+699.219+384.585+702.152+384.585C702.152+386.828+702.152+386.828+702.152+389.071C704.498+389.071+704.498+389.071+706.845+389.071C706.845+390.193+706.845+390.193+706.845+391.315C708.018+391.315+708.018+391.315+709.191+391.315C709.191+392.436+709.191+392.436+709.191+393.558C711.537+393.558+711.537+393.558+713.884+393.558C713.884+395.24+713.884+395.24+713.884+396.922C715.057+396.922+715.057+396.922+716.23+396.922C716.23+398.044+716.23+398.044+716.23+399.166C718.577+399.166+718.577+399.166+720.923+399.166C720.923+400.287+720.923+400.287+720.923+401.409C722.096+401.409+722.096+401.409+723.27+401.409C723.27+402.53+723.27+402.53+723.27+403.652C724.443+403.652+724.443+403.652+725.616+403.652C725.616+404.773+725.616+404.773+725.616+405.895C726.789+405.895+726.789+405.895+727.963+405.895C727.963+408.138+727.963+408.138+727.963+410.381C729.136+410.381+729.136+410.381+730.309+410.381C730.309+411.503+730.309+411.503+730.309+412.624C731.482+412.624+731.482+412.624+732.655+412.624C732.655+414.867+732.655+414.867+732.655+417.111C733.829+417.111+733.829+417.111+735.002+417.111C735.002+418.232+735.002+418.232+735.002+419.354C736.175+419.354+736.175+419.354+737.348+419.354C737.348+420.475+737.348+420.475+737.348+421.597C738.521+421.597+738.521+421.597+739.695+421.597C739.695+424.961+739.695+424.961+739.695+428.326C742.041+428.326+742.041+428.326+744.388+428.326C744.388+446.672+743.613+438.847+745.561+451.879C746.734+451.879+746.734+451.879+747.907+451.879C747.907+460.812+749.648+471.227+750.254+479.918C752.014+478.796+752.014+478.796+753.773+477.675C753.773+496.634+754.047+518.256+749.08+534.875C746.923+542.093+751.836+568.522+740.868+568.522C739.712+581.779+732.655+591.559+732.655+603.29C730.896+603.29+730.896+603.29+729.136+603.29C728.549+608.898+728.549+608.898+727.963+614.506C726.203+614.506+726.203+614.506+724.443+614.506C722.907+623.313+718.577+629.159+718.577+638.058C707.218+638.058+711.537+644.203+711.537+656.003C709.778+656.003+709.778+656.003+708.018+656.003C707.431+659.368+707.431+659.368+706.845+662.733C705.671+662.733+705.671+662.733+704.498+662.733C700.522+677.936+689.246+695.108+689.246+708.717C687.486+708.717+687.486+708.717+685.727+708.717C681.325+725.548+661.538+734.183+658.743+750.215C651.9+750.215+647.464+754.191+649.357+761.43C646.66+756.274+644.091+761.43+639.971+761.43C639.385+764.795+639.385+764.795+638.798+768.16C633.232+768.16+629.412+769.173+629.412+774.889C627.652+774.889+627.652+774.889+625.893+774.889C625.306+776.571+625.306+776.571+624.719+778.254C622.959+778.254+622.959+778.254+621.2+778.254C620.613+780.497+620.613+780.497+620.026+782.74C609.303+782.74+605.097+796.199+594.216+796.199C593.629+798.442+593.629+798.442+593.042+800.685C582.942+800.685+574.861+814.144+563.712+814.144C563.125+816.387+563.125+816.387+562.539+818.63C535.941+818.63+509.066+822.821+482.76+818.63C482.76+817.509+482.76+817.509+482.76+816.387C481.587+816.387+481.587+816.387+480.413+816.387C480.413+815.265+480.413+815.265+480.413+814.144C476.894+814.144+476.894+814.144+473.374+814.144C473.374+813.022+473.374+813.022+473.374+811.901C471.028+811.901+471.028+811.901+468.681+811.901C468.681+810.779+468.681+810.779+468.681+809.658C467.508+809.658+467.508+809.658+466.335+809.658C466.335+808.536+466.335+808.536+466.335+807.414C462.815+807.414+462.815+807.414+459.296+807.414C459.296+806.293+459.296+806.293+459.296+805.171C458.122+805.171+458.122+805.171+456.949+805.171C456.949+804.05+456.949+804.05+456.949+802.928C455.776+802.928+455.776+802.928+454.603+802.928C454.603+801.807+454.603+801.807+454.603+800.685C452.843+800.685+452.843+800.685+451.083+800.685C452.606+797.773+452.256+799.278+452.256+796.199C446.977+796.199+446.977+796.199+441.697+796.199C441.697+793.956+441.697+793.956+441.697+791.713C440.524+791.713+440.524+791.713+439.351+791.713C439.351+790.591+439.351+790.591+439.351+789.469C435.831+789.469+435.831+789.469+432.311+789.469C432.311+788.348+432.311+788.348+432.311+787.226C431.138+787.226+431.138+787.226+429.965+787.226C429.965+786.105+429.965+786.105+429.965+784.983C428.792+784.983+428.792+784.983+427.619+784.983C427.619+782.74+427.619+782.74+427.619+780.497C424.181+780.497+420.579+779.572+420.579+776.011C419.406+776.011+419.406+776.011+418.233+776.011C418.233+774.328+418.233+774.328+418.233+772.646C415.886+772.646+415.886+772.646+413.54+772.646C413.54+770.403+413.54+770.403+413.54+768.16C411.194+768.16+411.194+768.16+408.847+768.16C408.847+765.917+408.847+765.917+408.847+763.673C407.674+763.673+407.674+763.673+406.501+763.673C406.501+762.552+406.501+762.552+406.501+761.43C404.741+761.43+404.741+761.43+402.981+761.43C402.981+759.187+402.981+759.187+402.981+756.944C400.635+756.944+400.635+756.944+398.288+756.944C400.183+753.322+401.086+756.08+402.981+752.458C401.808+752.458+401.808+752.458+400.635+752.458C400.635+751.336+400.635+751.336+400.635+750.215C395.942+750.215+395.942+750.215+391.249+750.215C391.249+746.43+391.439+748.697+390.076+743.485C387.143+743.485+387.143+743.485+384.21+743.485C384.21+740.2+383.242+736.756+379.517+736.756C379.517+735.634+379.517+735.634+379.517+734.513C372.99+734.513+374.824+732.344+374.824+725.54C373.651+725.54+373.651+725.54+372.477+725.54C372.477+720.493+372.477+720.493+372.477+715.446C371.304+715.446+371.304+715.446+370.131+715.446C372.025+711.824+371.092+714.014+372.477+708.717C367.784+708.717+367.784+708.717+363.092+708.717C363.092+707.595+363.092+707.595+363.092+706.474C361.918+706.474+361.918+706.474+360.745+706.474C360.745+705.352+360.745+705.352+360.745+704.231C359.572+704.231+359.572+704.231+358.399+704.231C358.399+701.988+358.399+701.988+358.399+699.744C357.226+699.744+357.226+699.744+356.052+699.744C356.052+695.227+356.181+698.239+354.879+690.772C353.706+690.772+353.706+690.772+352.533+690.772C352.533+688.529+352.533+688.529+352.533+686.286C351.359+686.286+351.359+686.286+350.186+686.286C350.186+685.164+350.186+685.164+350.186+684.043C349.013+684.043+349.013+684.043+347.84+684.043C347.84+678.995+347.84+678.995+347.84+673.948C345.493+673.948+345.493+673.948+343.147+673.948C343.147+669.462+343.147+669.462+343.147+664.976C341.974+664.976+341.974+664.976+340.8+664.976C340.8+660.49+340.8+660.49+340.8+656.003C339.627+656.003+339.627+656.003+338.454+656.003C338.454+652.639+338.454+652.639+338.454+649.274C337.281+649.274+337.281+649.274+336.108+649.274C336.108+642.514+336.365+646.263+334.934+638.058C332.001+638.058+332.001+638.058+329.068+638.058C329.068+629.647+329.068+629.647+329.068+621.235C327.895+621.235+327.895+621.235+326.722+621.235C326.722+617.87+326.722+617.87+326.722+614.506C325.549+614.506+325.549+614.506+324.375+614.506C324.375+613.384+324.375+613.384+324.375+612.262C323.202+612.262+323.202+612.262+322.029+612.262C322.029+608.898+322.029+608.898+322.029+605.533C320.856+605.533+320.856+605.533+319.683+605.533C319.683+599.365+319.683+599.365+319.683+593.196C318.509+593.196+318.509+593.196+317.336+593.196C317.336+586.467+317.336+586.467+317.336+579.737C316.163+579.737+316.163+579.737+314.99+579.737C314.99+578.616+314.99+578.616+314.99+577.494C313.816+577.494+313.816+577.494+312.643+577.494C312.643+573.008+312.643+573.008+312.643+568.522C311.47+568.522+311.47+568.522+310.297+568.522C310.297+565.157+310.297+565.157+310.297+561.792C309.124+561.792+309.124+561.792+307.95+561.792C307.95+560.671+307.95+560.671+307.95+559.549C306.777+559.549+306.777+559.549+305.604+559.549C305.604+555.063+305.604+555.063+305.604+550.577C304.431+550.577+304.431+550.577+303.257+550.577C303.257+544.593+301.534+522.537+295.045+522.537C295.045+519.173+295.045+519.173+295.045+515.808C293.872+515.808+293.872+515.808+292.699+515.808C292.063+506.691+296.982+472.067+283.313+472.067C283.313+448.055+283.542+441.858+307.95+449.636C311.182+443.458+334.778+421.597+340.8+421.597C340.8+420.475+340.8+420.475+340.8+419.354C339.627+419.354+339.627+419.354+338.454+419.354C344.295+413.77+345.181+410.381+353.706+410.381C353.706+405.254+355.63+405.996+360.745+404.773C360.745+403.652+360.745+403.652+360.745+402.53C378.614+398.26+384.605+380.099+404.154+380.099C404.154+370.605+447.055+367.322+454.603+365.519C453.429+364.958+453.429+364.958+452.256+364.397C455.302+362.941+454.603+364.112+454.603+361.032C463.988+360.472+463.988+360.472+473.374+359.911C472.201+359.35+472.201+359.35+471.028+358.789C475.45+358.261+482.76+359.629+482.76+354.303C498.308+351.826+514.06+347.574+528.515+347.574C529.102+345.33+529.102+345.33+529.689+343.087Z" fill="#835e42" stroke-linejoin="round" opacity="1" stroke-width="1"/>
<path stroke-linejoin="round" stroke="#e0d4c4" d="M605.948+368.883C605.948+370.005+605.948+370.005+605.948+371.126C612.86+371.126+620.129+374.507+627.066+375.613C627.066+376.734+627.066+376.734+627.066+377.856C636.743+377.856+645.701+385.008+655.223+386.828C655.223+387.95+655.223+387.95+655.223+389.071C665.39+392.311+674.395+397.05+684.553+400.287C684.553+401.409+684.553+401.409+684.553+402.53C695.426+402.53+711.084+420.296+713.884+428.326C715.057+428.326+715.057+428.326+716.23+428.326C716.23+444.271+725.792+464.437+727.963+481.04C729.136+481.04+729.136+481.04+730.309+481.04C730.309+547.378+708.468+606.398+682.207+664.976C676.445+677.829+661.089+699.266+661.089+713.203C657.846+713.203+594.874+775.135+576.617+783.862C577.791+784.422+577.791+784.422+578.964+784.983C544.535+784.983+543.924+814.568+489.799+797.32C496.8+795.647+492.901+796.452+501.531+795.077C495.91+794.54+471.028+788.424+471.028+781.618C467.591+781.618+463.988+780.693+463.988+777.132C462.815+777.132+462.815+777.132+461.642+777.132C461.642+775.45+461.642+775.45+461.642+773.768C451.712+771.394+448.656+764.395+439.351+761.43C439.351+760.309+439.351+760.309+439.351+759.187C438.178+759.187+438.178+759.187+437.004+759.187C437.004+755.126+428.817+751.457+427.619+745.728C426.445+745.728+426.445+745.728+425.272+745.728C425.272+744.607+425.272+744.607+425.272+743.485C415.981+741.265+404.564+730.08+401.808+722.176C400.635+722.176+400.635+722.176+399.461+722.176C399.461+719.102+399.433+717.689+395.942+717.689C395.942+714.885+395.942+714.885+395.942+712.082C388.707+712.082+392.769+704.231+386.556+704.231C386.556+701.988+386.556+701.988+386.556+699.744C385.383+699.744+385.383+699.744+384.21+699.744C384.21+693.532+382.423+690.879+375.997+689.65C378.675+684.53+365.733+662.079+360.745+660.49C360.745+650.733+360.208+655.205+361.918+647.031C360.745+647.031+360.745+647.031+359.572+647.031C359.572+643.958+359.544+642.545+356.052+642.545C356.052+636.069+355.346+629.751+353.706+623.478C351.946+623.478+351.946+623.478+350.186+623.478C350.186+608.094+340.285+591.006+338.454+575.251C337.281+575.251+337.281+575.251+336.108+575.251C336.108+569.79+337.912+564.724+336.108+559.549C334.934+559.549+334.934+559.549+333.761+559.549C333.761+555.845+332.637+554.081+331.415+550.577C329.068+550.577+329.068+550.577+326.722+550.577C326.722+532.006+320.104+510.78+317.336+492.255C315.576+492.255+315.576+492.255+313.816+492.255C313.816+481.682+314.836+449.636+333.761+449.636C333.761+446.04+337.308+444.028+340.8+444.028C342.417+437.846+353.371+428.326+360.745+428.326C359.572+427.765+359.572+427.765+358.399+427.205C363.893+424.578+364.867+424.749+372.477+423.84C372.477+422.718+372.477+422.718+372.477+421.597C370.131+421.597+370.131+421.597+367.784+421.597C375.71+414.02+400.124+396.922+411.194+396.922C409.434+396.362+409.434+396.362+407.674+395.801C416.509+391.578+427.37+392.236+437.004+391.315C437.004+390.193+437.004+390.193+437.004+389.071C432.311+389.071+432.311+389.071+427.619+389.071C486.687+370.249+538.671+361.737+605.948+368.883Z" opacity="1" stroke-width="1" fill="#e0d4c4" stroke-linecap="round"/>
<path opacity="1" stroke-width="1" d="M385.383+163.637C384.796+156.347+384.796+156.347+384.21+149.057C409.507+143.011+428.653+145.179+454.603+147.935C453.429+148.496+453.429+148.496+452.256+149.057C456.147+150.917+459.672+151.596+463.988+152.422C463.988+153.543+463.988+153.543+463.988+154.665C467.174+154.665+473.374+158.311+473.374+161.394C482.596+161.394+487.511+184.947+496.839+184.947C496.839+186.069+496.839+186.069+496.839+187.19C499.185+187.19+499.185+187.19+501.531+187.19C501.531+191.886+503.689+213.637+512.09+209.621C512.09+210.743+512.09+210.743+512.09+211.865C522.889+211.865+526.462+165.88+546.114+165.88C546.114+162.801+546.464+164.306+544.94+161.394C572.765+140.114+596.547+124.385+631.759+117.653C631.759+125.094+631.11+136.72+641.144+136.72C641.144+137.841+641.144+137.841+641.144+138.963C644.077+138.963+644.077+138.963+647.01+138.963C647.01+140.084+647.01+140.084+647.01+141.206C659.916+141.206+659.916+141.206+672.821+141.206C672.821+137.906+672.268+139.492+675.168+136.72C675.168+148.928+671.883+144.635+656.396+145.692C657.569+145.132+657.569+145.132+658.743+144.571C634.047+142.21+642.736+144.704+631.759+141.206C631.759+138.963+631.759+138.963+631.759+136.72C630.585+136.72+630.585+136.72+629.412+136.72C629.412+135.598+629.412+135.598+629.412+134.477C617.539+134.477+606.277+143.449+594.216+143.449C593.629+145.692+593.629+145.692+593.042+147.935C585.778+147.935+569.578+152.14+569.578+161.394C559.548+161.394+564.071+165.88+556.673+165.88C554.701+171.534+547.287+176.751+547.287+182.704C545.527+182.704+545.527+182.704+543.767+182.704C540.213+196.296+528.515+202.456+528.515+217.472C526.756+217.472+526.756+217.472+524.996+217.472C524.409+221.959+524.409+221.959+523.823+226.445C522.063+226.445+522.063+226.445+520.303+226.445C519.716+230.931+519.716+230.931+519.13+235.417C520.303+235.417+520.303+235.417+521.476+235.417C521.476+248.531+522.113+249.148+509.744+251.119C509.744+249.998+509.744+249.998+509.744+248.876C508.571+248.876+508.571+248.876+507.397+248.876C507.397+247.755+507.397+247.755+507.397+246.633C506.224+246.633+506.224+246.633+505.051+246.633C505.051+245.511+505.051+245.511+505.051+244.39C503.878+244.39+503.878+244.39+502.705+244.39C502.705+241.289+501.162+238.492+500.358+235.417C498.598+235.417+498.598+235.417+496.839+235.417C496.839+233.174+496.839+233.174+496.839+230.931C495.665+230.931+495.665+230.931+494.492+230.931C494.492+224.202+494.492+224.202+494.492+217.472C492.146+217.472+492.146+217.472+489.799+217.472C489.799+213.547+489.799+213.547+489.799+209.621C488.626+209.621+488.626+209.621+487.453+209.621C487.453+208.5+487.453+208.5+487.453+207.378C486.28+207.378+486.28+207.378+485.106+207.378C485.106+202.892+485.106+202.892+485.106+198.406C483.933+198.406+483.933+198.406+482.76+198.406C482.76+197.284+482.76+197.284+482.76+196.163C481.587+196.163+481.587+196.163+480.413+196.163C480.413+193.919+480.413+193.919+480.413+191.676C479.24+191.676+479.24+191.676+478.067+191.676C478.067+190.555+478.067+190.555+478.067+189.433C476.894+189.433+476.894+189.433+475.721+189.433C475.721+188.312+475.721+188.312+475.721+187.19C474.547+187.19+474.547+187.19+473.374+187.19C473.374+184.947+473.374+184.947+473.374+182.704C471.028+182.704+471.028+182.704+468.681+182.704C468.681+179.339+468.681+179.339+468.681+175.974C466.335+175.974+466.335+175.974+463.988+175.974C463.988+173.731+463.988+173.731+463.988+171.488C459.454+171.488+456.949+170.225+456.949+165.88C450.715+165.88+444.62+162.304+437.004+161.394C437.004+160.273+437.004+160.273+437.004+159.151C420.365+159.151+393.597+147.932+385.383+163.637Z" fill="#855f40" stroke-linecap="round" stroke-linejoin="round" stroke="#855f40"/>
<path stroke="#896548" opacity="1" fill="#896548" stroke-linejoin="round" stroke-linecap="round" stroke-width="1" d="M675.168+132.234C675.168+126.626+675.168+126.626+675.168+121.018C673.994+121.018+673.994+121.018+672.821+121.018C672.821+117.653+672.821+117.653+672.821+114.289C678.101+114.289+678.101+114.289+683.38+114.289C683.38+115.41+683.38+115.41+683.38+116.532C690.053+116.532+685.735+116.392+696.286+117.653C696.286+123.62+710.569+123.766+715.057+126.626C713.884+127.186+713.884+127.186+712.711+127.747C716.817+127.747+716.817+127.747+720.923+127.747C720.923+128.869+720.923+128.869+720.923+129.99C723.27+129.99+723.27+129.99+725.616+129.99C725.616+131.112+725.616+131.112+725.616+132.234C734.905+132.234+742.66+147.759+750.254+150.179C750.254+151.3+750.254+151.3+750.254+152.422C751.427+152.422+751.427+152.422+752.6+152.422C752.6+153.543+752.6+153.543+752.6+154.665C753.773+154.665+753.773+154.665+754.947+154.665C754.947+155.786+754.947+155.786+754.947+156.908C756.12+156.908+756.12+156.908+757.293+156.908C757.293+158.029+757.293+158.029+757.293+159.151C758.466+159.151+758.466+159.151+759.639+159.151C759.639+160.273+759.639+160.273+759.639+161.394C762.49+161.394+769.025+166.289+769.025+169.245C770.198+169.245+770.198+169.245+771.372+169.245C772.154+172.236+772.936+175.227+773.718+178.218C774.891+178.218+774.891+178.218+776.064+178.218C776.064+182.205+776.458+182.704+780.757+182.704C780.757+184.947+780.757+184.947+780.757+187.19C781.931+187.19+781.931+187.19+783.104+187.19C784.214+197.801+786.807+207.135+788.97+217.472C790.73+217.472+790.73+217.472+792.49+217.472C790.721+227.618+790.358+226.445+801.875+226.445C800.156+229.732+797.64+228.859+793.663+229.81C801.788+231.104+801.994+229.977+810.088+228.688C808.915+228.127+808.915+228.127+807.741+227.566C828.273+227.566+828.273+227.566+848.804+227.566C847.631+228.127+847.631+228.127+846.458+228.688C861.395+228.688+875.504+237.896+872.268+253.362C868.816+253.362+867.576+254.548+867.576+257.849C866.402+257.849+866.402+257.849+865.229+257.849C865.229+254.484+865.229+254.484+865.229+251.119C862.883+251.119+862.883+251.119+860.536+251.119C860.536+249.998+860.536+249.998+860.536+248.876C859.363+248.876+859.363+248.876+858.19+248.876C858.19+247.755+858.19+247.755+858.19+246.633C855.843+246.633+855.843+246.633+853.497+246.633C853.497+245.511+853.497+245.511+853.497+244.39C851.15+244.39+851.15+244.39+848.804+244.39C848.804+243.268+848.804+243.268+848.804+242.147C844.698+242.147+844.698+242.147+840.591+242.147C840.591+241.025+840.591+241.025+840.591+239.904C822.407+239.904+822.407+239.904+804.222+239.904C803.635+242.147+803.635+242.147+803.049+244.39C798.942+244.39+798.942+244.39+794.836+244.39C794.249+246.633+794.249+246.633+793.663+248.876C786.06+248.876+794.9+251.119+778.411+251.119C778.411+249.998+778.411+249.998+778.411+248.876C777.238+248.876+777.238+248.876+776.064+248.876C776.064+247.755+776.064+247.755+776.064+246.633C774.891+246.633+774.891+246.633+773.718+246.633C773.718+244.39+773.718+244.39+773.718+242.147C772.545+242.147+772.545+242.147+771.372+242.147C771.372+238.782+771.372+238.782+771.372+235.417C770.198+235.417+770.198+235.417+769.025+235.417C769.025+233.174+769.025+233.174+769.025+230.931C767.852+230.931+767.852+230.931+766.679+230.931C766.679+224.202+766.679+224.202+766.679+217.472C765.506+217.472+765.506+217.472+764.332+217.472C764.332+216.351+764.332+216.351+764.332+215.229C763.159+215.229+763.159+215.229+761.986+215.229C761.986+207.939+761.986+207.939+761.986+200.649C760.813+200.649+760.813+200.649+759.639+200.649C759.639+198.406+759.639+198.406+759.639+196.163C758.466+196.163+758.466+196.163+757.293+196.163C757.293+195.041+757.293+195.041+757.293+193.919C756.12+193.919+756.12+193.919+754.947+193.919C754.947+192.798+754.947+192.798+754.947+191.676C753.773+191.676+753.773+191.676+752.6+191.676C752.6+190.555+752.6+190.555+752.6+189.433C751.427+189.433+751.427+189.433+750.254+189.433C750.254+186.069+750.254+186.069+750.254+182.704C747.907+182.704+747.907+182.704+745.561+182.704C745.561+176.73+746.176+175.974+739.695+175.974C739.695+173.731+739.695+173.731+739.695+171.488C738.521+171.488+738.521+171.488+737.348+171.488C737.348+170.367+737.348+170.367+737.348+169.245C736.175+169.245+736.175+169.245+735.002+169.245C735.002+167.002+735.002+167.002+735.002+164.759C732.655+164.759+732.655+164.759+730.309+164.759C730.309+163.077+730.309+163.077+730.309+161.394C729.136+161.394+729.136+161.394+727.963+161.394C727.963+160.273+727.963+160.273+727.963+159.151C726.789+159.151+726.789+159.151+725.616+159.151C725.616+158.029+725.616+158.029+725.616+156.908C723.27+156.908+723.27+156.908+720.923+156.908C720.923+154.665+720.923+154.665+720.923+152.422C717.404+152.422+717.404+152.422+713.884+152.422C713.884+151.3+713.884+151.3+713.884+150.179C712.711+150.179+712.711+150.179+711.537+150.179C711.537+149.057+711.537+149.057+711.537+147.935C709.191+147.935+709.191+147.935+706.845+147.935C706.845+146.814+706.845+146.814+706.845+145.692C704.498+145.692+704.498+145.692+702.152+145.692C702.152+143.449+702.152+143.449+702.152+141.206C699.219+141.206+699.219+141.206+696.286+141.206C696.286+140.084+696.286+140.084+696.286+138.963C695.112+138.963+695.112+138.963+693.939+138.963C693.939+137.841+693.939+137.841+693.939+136.72C688.073+136.72+688.073+136.72+682.207+136.72C682.207+135.598+682.207+135.598+682.207+134.477C681.034+134.477+681.034+134.477+679.861+134.477C679.861+132.794+679.861+132.794+679.861+131.112C676.815+132.568+678.389+132.234+675.168+132.234Z"/>
<path opacity="1" d="M203.534+316.17C209.96+310.027+204.506+300.053+203.534+292.617C202.361+292.617+202.361+292.617+201.187+292.617C201.187+279.783+247.54+284.956+257.502+288.131C257.502+289.813+257.502+289.813+257.502+291.495C267.287+291.495+271.11+303.833+277.447+303.833C276.86+304.954+276.86+304.954+276.273+306.076C281.077+306.076+280.966+300.764+280.966+297.103C279.793+297.664+279.793+297.664+278.62+298.225C278.62+289.206+280.966+293.582+280.966+288.131C279.793+288.131+279.793+288.131+278.62+288.131C278.62+261.147+290.262+224.316+307.95+201.77C315.326+192.37+345.312+159.581+351.359+182.704C353.119+182.704+353.119+182.704+354.879+182.704C354.879+186.069+354.879+186.069+354.879+189.433C353.119+189.433+353.119+189.433+351.359+189.433C351.359+184.204+349.597+182.704+344.32+182.704C343.734+186.069+343.734+186.069+343.147+189.433C332.533+189.433+333.716+200.649+323.202+200.649C318.856+217.269+306.941+225.195+304.431+244.39C302.671+244.39+302.671+244.39+300.911+244.39C297.384+271.362+292.699+281.77+292.699+316.17C293.872+316.17+293.872+316.17+295.045+316.17C295.045+319.535+295.045+319.535+295.045+322.899C285.659+322.899+285.659+322.899+276.273+322.899C276.273+321.778+276.273+321.778+276.273+320.656C275.1+320.656+275.1+320.656+273.927+320.656C273.927+319.535+273.927+319.535+273.927+318.413C270.407+318.413+270.407+318.413+266.888+318.413C266.888+314.488+266.888+314.488+266.888+310.562C262.716+310.562+262.195+310.186+262.195+306.076C258.216+306.076+253.141+304.359+249.289+303.833C249.289+301.59+249.289+301.59+249.289+299.346C248.116+299.346+248.116+299.346+246.943+299.346C246.943+298.225+246.943+298.225+246.943+297.103C234.429+297.103+221.891+296.38+209.4+297.103C203.455+297.448+208.151+315.519+208.227+316.17C205.88+316.17+205.88+316.17+203.534+316.17Z" fill="#825c3c" stroke="#825c3c" stroke-linejoin="round" stroke-linecap="round" stroke-width="1"/>
<path stroke="#846043" opacity="1" stroke-width="1" stroke-linecap="round" stroke-linejoin="round" fill="#846043" d="M690.42+167.002C690.42+168.124+690.42+168.124+690.42+169.245C696.286+169.245+696.286+169.245+702.152+169.245C702.152+171.488+702.152+171.488+702.152+173.731C705.671+173.731+705.671+173.731+709.191+173.731C709.191+174.853+709.191+174.853+709.191+175.974C711.537+175.974+711.537+175.974+713.884+175.974C713.884+177.096+713.884+177.096+713.884+178.218C716.23+178.218+716.23+178.218+718.577+178.218C718.577+179.339+718.577+179.339+718.577+180.461C719.75+180.461+719.75+180.461+720.923+180.461C720.923+182.704+720.923+182.704+720.923+184.947C722.096+184.947+722.096+184.947+723.27+184.947C723.27+186.069+723.27+186.069+723.27+187.19C724.443+187.19+724.443+187.19+725.616+187.19C725.616+188.312+725.616+188.312+725.616+189.433C726.789+189.433+726.789+189.433+727.963+189.433C727.963+190.555+727.963+190.555+727.963+191.676C729.136+191.676+729.136+191.676+730.309+191.676C730.309+195.041+730.309+195.041+730.309+198.406C731.482+198.406+731.482+198.406+732.655+198.406C732.655+199.527+732.655+199.527+732.655+200.649C733.829+200.649+733.829+200.649+735.002+200.649C735.002+206.817+735.002+206.817+735.002+212.986C736.175+212.986+736.175+212.986+737.348+212.986C737.348+219.715+737.348+219.715+737.348+226.445C738.521+226.445+738.521+226.445+739.695+226.445C739.695+257.442+730.863+254.609+725.616+274.672C708.733+274.672+709.232+279.158+684.553+279.158C684.553+278.037+684.553+278.037+684.553+276.915C677.514+276.915+677.514+276.915+670.475+276.915C670.475+275.794+670.475+275.794+670.475+274.672C665.782+274.672+665.782+274.672+661.089+274.672C662.262+273.55+662.262+273.55+663.436+272.429C641.756+270.356+611.409+263.585+590.696+270.186C590.696+269.064+590.696+269.064+590.696+267.943C584.411+267.943+588.338+268.101+578.964+266.821C578.964+264.017+578.964+264.017+578.964+261.213C577.791+261.213+577.791+261.213+576.617+261.213C576.617+259.531+576.617+259.531+576.617+257.849C575.444+257.849+575.444+257.849+574.271+257.849C572.707+250.371+575.053+252.615+567.232+251.119C567.232+247.072+568.718+244.013+569.578+239.904C567.232+239.904+567.232+239.904+564.885+239.904C564.885+229.015+569.578+227.78+569.578+218.594C573.098+218.033+573.098+218.033+576.617+217.472C576.617+208.753+597.113+182.704+608.294+182.704C608.294+176.864+614.596+173.731+620.026+173.731C620.026+172.049+620.026+172.049+620.026+170.367C644.385+167.456+665.527+164.839+690.42+167.002Z"/>
<path fill="#8c6a4e" stroke="#8c6a4e" stroke-linejoin="round" opacity="1" stroke-width="1" stroke-linecap="round" d="M886.347+299.346C887.129+297.851+887.911+296.356+888.693+294.86C889.867+295.421+889.867+295.421+891.04+295.982C891.626+292.617+891.626+292.617+892.213+289.252C896.906+289.252+896.906+289.252+901.599+289.252C903.159+293.726+904.368+297.014+902.772+301.59C903.945+301.59+903.945+301.59+905.119+301.59C905.119+307.603+907.128+312.639+908.638+318.413C909.811+318.413+909.811+318.413+910.985+318.413C910.985+320.656+910.985+320.656+910.985+322.899C912.158+322.899+912.158+322.899+913.331+322.899C913.331+331.171+913.9+327.452+912.158+334.115C913.918+334.115+913.918+334.115+915.677+334.115C915.677+341.786+913.743+350.27+915.677+357.668C916.851+357.668+916.851+357.668+918.024+357.668C918.024+384.024+918.024+384.024+918.024+410.381C916.264+410.381+916.264+410.381+914.504+410.381C912.222+423.469+910.559+437.191+908.638+451.879C906.878+451.879+906.878+451.879+905.119+451.879C905.119+449.075+905.119+449.075+905.119+446.271C904.532+451.318+904.532+451.318+903.945+456.365C903.359+455.244+903.359+455.244+902.772+454.122C902.185+458.608+902.185+458.608+901.599+463.095C902.772+463.095+902.772+463.095+903.945+463.095C903.945+465.338+903.945+465.338+903.945+467.581C902.772+467.581+902.772+467.581+901.599+467.581C901.012+469.824+901.012+469.824+900.426+472.067C890.979+472.067+884.001+487.045+884.001+494.498C885.174+494.498+885.174+494.498+886.347+494.498C886.347+497.302+886.347+497.302+886.347+500.106C888.107+500.106+888.107+500.106+889.867+500.106C889.867+506.851+889.802+501.605+891.04+515.808C892.8+515.808+892.8+515.808+894.56+515.808C894.56+521.857+899.831+528.161+896.906+533.753C893.919+539.465+883.275+539.523+886.347+548.333C884.001+548.333+884.001+548.333+881.654+548.333C882.241+547.212+882.241+547.212+882.827+546.09C881.068+546.09+881.068+546.09+879.308+546.09C883.11+538.82+880.423+544.682+881.654+527.024C879.894+527.024+879.894+527.024+878.134+527.024C878.134+521.766+878.232+525.524+876.961+515.808C875.788+515.808+875.788+515.808+874.615+515.808C874.615+513.565+874.615+513.565+874.615+511.322C873.442+511.322+873.442+511.322+872.268+511.322C872.268+506.836+872.268+506.836+872.268+502.349C862.883+502.349+862.883+502.349+853.497+502.349C853.497+501.228+853.497+501.228+853.497+500.106C852.324+500.106+852.324+500.106+851.15+500.106C851.15+498.985+851.15+498.985+851.15+497.863C849.977+497.863+849.977+497.863+848.804+497.863C848.804+487.321+856.193+476.553+867.576+476.553C867.576+466.359+883.919+455.555+886.347+446.271C895.714+410.454+896.906+371.286+896.906+334.115C895.733+334.115+895.733+334.115+894.56+334.115C894.56+328.507+894.56+328.507+894.56+322.899C893.386+322.899+893.386+322.899+892.213+322.899C892.213+314.283+892.355+319.904+891.04+306.076C889.867+306.076+889.867+306.076+888.693+306.076C888.693+302.711+888.693+302.711+888.693+299.346C887.52+299.346+887.52+299.346+886.347+299.346Z"/>
<path d="M851.15+283.645C851.15+284.766+851.15+284.766+851.15+285.888C854.856+285.888+859.228+287.549+862.883+288.131C862.883+289.252+862.883+289.252+862.883+290.374C865.229+290.374+865.229+290.374+867.576+290.374C867.576+288.692+867.576+288.692+867.576+287.009C872.145+285.553+870.221+286.724+873.442+283.645C874.028+285.888+874.028+285.888+874.615+288.131C872.855+288.131+872.855+288.131+871.095+288.131C870.509+294.86+870.509+294.86+869.922+301.59C871.095+301.59+871.095+301.59+872.268+301.59C872.268+305.515+872.268+305.515+872.268+309.44C873.442+309.44+873.442+309.44+874.615+309.44C885.748+341.369+877.361+376.728+876.961+410.381C876.789+424.894+859.033+431.833+855.843+444.028C858.19+444.028+858.19+444.028+860.536+444.028C860.536+445.15+860.536+445.15+860.536+446.271C855.257+446.271+855.257+446.271+849.977+446.271C846.943+454.972+823.323+451.695+819.474+451.879C819.474+450.757+819.474+450.757+819.474+449.636C818.3+449.636+818.3+449.636+817.127+449.636C817.127+447.954+817.127+447.954+817.127+446.271C814.781+446.271+814.781+446.271+812.434+446.271C812.434+444.028+812.434+444.028+812.434+441.785C810.088+441.785+810.088+441.785+807.741+441.785C807.741+436.762+808.551+435.056+803.049+435.056C803.049+431.691+803.049+431.691+803.049+428.326C800.702+428.326+800.702+428.326+798.356+428.326C798.356+422.718+798.356+422.718+798.356+417.111C797.182+417.111+797.182+417.111+796.009+417.111C796.009+415.989+796.009+415.989+796.009+414.867C794.836+414.867+794.836+414.867+793.663+414.867C793.229+409.897+790.314+405.272+790.143+400.287C789.374+377.868+789.374+355.413+790.143+332.993C790.172+332.158+791.707+332.246+792.49+331.872C791.316+330.75+791.316+330.75+790.143+329.629C787.579+330.854+785.999+331.872+783.104+331.872C783.104+330.75+783.104+330.75+783.104+329.629C780.757+329.629+780.757+329.629+778.411+329.629C778.411+326.825+778.411+326.825+778.411+324.021C791.547+319.835+788.712+299.346+810.088+299.346C810.088+298.225+810.088+298.225+810.088+297.103C806.568+297.103+806.568+297.103+803.049+297.103C808.236+287.185+840.527+283.645+851.15+283.645Z" stroke-width="1" opacity="1" fill="#835e40" stroke-linecap="round" stroke="#835e40" stroke-linejoin="round"/>
<path d="M434.658+196.163C434.658+198.406+434.658+198.406+434.658+200.649C438.178+200.649+438.178+200.649+441.697+200.649C441.697+202.892+441.697+202.892+441.697+205.135C442.87+205.135+442.87+205.135+444.044+205.135C444.044+208.806+448.606+217.472+452.256+217.472C452.256+220.837+452.256+220.837+452.256+224.202C453.429+224.202+453.429+224.202+454.603+224.202C454.603+226.445+454.603+226.445+454.603+228.688C455.776+228.688+455.776+228.688+456.949+228.688C456.949+232.053+456.949+232.053+456.949+235.417C458.122+235.417+458.122+235.417+459.296+235.417C459.882+241.025+459.882+241.025+460.469+246.633C461.055+245.511+461.055+245.511+461.642+244.39C461.642+248.876+461.642+248.876+461.642+253.362C462.815+253.362+462.815+253.362+463.988+253.362C463.988+295.274+460.483+264.545+451.083+287.009C449.323+286.448+449.323+286.448+447.563+285.888C445.343+290.132+357.978+292.617+345.493+292.617C345.493+291.495+345.493+291.495+345.493+290.374C344.32+290.374+344.32+290.374+343.147+290.374C343.147+289.252+343.147+289.252+343.147+288.131C339.627+288.131+339.627+288.131+336.108+288.131C337.805+284.885+336.406+285.888+340.8+285.888C338.454+285.327+338.454+285.327+336.108+284.766C336.108+280.841+336.108+280.841+336.108+276.915C334.934+276.915+334.934+276.915+333.761+276.915C338.704+267.465+345.493+252.019+345.493+243.268C350.15+241.784+350.186+241.143+350.186+236.539C351.946+235.978+351.946+235.978+353.706+235.417C353.706+227.485+365.652+217.472+372.477+217.472C372.477+215.79+372.477+215.79+372.477+214.108C379.06+212.535+384.305+207.378+390.076+207.378C394.114+195.796+426.178+196.163+434.658+196.163Z" stroke="#8a6649" opacity="1" stroke-width="1" fill="#8a6649" stroke-linecap="round" stroke-linejoin="round"/>
<path stroke-linecap="round" fill="#daccbc" stroke="#daccbc" opacity="1" stroke-width="1" stroke-linejoin="round" d="M684.553+184.947C684.553+186.069+684.553+186.069+684.553+187.19C692.159+188.644+705.338+198.406+710.364+198.406C710.364+205.836+714.326+214.676+716.23+221.959C717.404+221.959+717.404+221.959+718.577+221.959C718.577+227.196+724.459+253.915+716.23+257.849C701.337+264.967+667.081+253.11+649.357+252.241C636.463+251.609+623.546+251.493+610.641+251.119C610.641+249.998+610.641+249.998+610.641+248.876C597.325+247.719+598.588+247.601+589.523+243.268C591.994+238.544+590.936+231.796+591.869+226.445C585.94+226.445+588.66+225.972+583.657+227.566C603.304+190.002+644.026+184.947+684.553+184.947Z"/>
<path d="M244.597+322.899C244.597+325.142+244.597+325.142+244.597+327.385C248.116+327.385+248.116+327.385+251.636+327.385C251.636+328.507+251.636+328.507+251.636+329.629C252.809+329.629+252.809+329.629+253.982+329.629C253.982+330.75+253.982+330.75+253.982+331.872C255.156+331.872+255.156+331.872+256.329+331.872C256.329+335.158+257.296+338.601+261.022+338.601C261.022+360.197+264.725+381.885+262.195+403.652C257.032+403.652+256.969+411.193+256.329+414.867C254.569+414.867+254.569+414.867+252.809+414.867C249.476+427.615+217.127+425.775+209.4+426.083C210.182+424.588+210.964+423.092+211.746+421.597C209.987+421.597+209.987+421.597+208.227+421.597C208.227+420.475+208.227+420.475+208.227+419.354C203.534+419.354+203.534+419.354+198.841+419.354C198.841+417.111+198.841+417.111+198.841+414.867C197.668+414.867+197.668+414.867+196.495+414.867C196.495+412.624+196.495+412.624+196.495+410.381C194.148+410.381+194.148+410.381+191.802+410.381C191.802+409.26+191.802+409.26+191.802+408.138C190.629+408.138+190.629+408.138+189.455+408.138C183.241+390.315+185.901+353.348+189.455+336.358C185.936+336.358+185.936+336.358+182.416+336.358C189.092+323.593+233.851+322.899+244.597+322.899Z" stroke-linecap="round" stroke-width="1" fill="#855f40" stroke="#855f40" opacity="1" stroke-linejoin="round"/>
<path stroke-width="1" d="M861.709+581.98C859.917+588.836+853.497+597.205+853.497+603.29C851.737+603.29+851.737+603.29+849.977+603.29C849.391+606.655+849.391+606.655+848.804+610.019C842.855+610.019+846.206+612.262+839.418+612.262C836.301+624.181+808.714+623.215+798.356+621.235C798.356+620.113+798.356+620.113+798.356+618.992C796.596+618.992+796.596+618.992+794.836+618.992C794.836+617.87+794.836+617.87+794.836+616.749C793.663+616.749+793.663+616.749+792.49+616.749C792.49+615.627+792.49+615.627+792.49+614.506C790.143+614.506+790.143+614.506+787.797+614.506C787.797+611.141+787.797+611.141+787.797+607.776C786.623+607.776+786.623+607.776+785.45+607.776C785.45+605.533+785.45+605.533+785.45+603.29C784.277+603.29+784.277+603.29+783.104+603.29C783.104+583.777+790.143+573.209+790.143+558.427C791.903+557.867+791.903+557.867+793.663+557.306C793.663+541.558+817.127+549.712+817.127+540.482C827.296+538.052+838.494+536.268+848.804+538.239C848.804+539.922+848.804+539.922+848.804+541.604C851.15+541.604+851.15+541.604+853.497+541.604C853.497+545.265+853.386+550.577+858.19+550.577C858.19+552.82+858.19+552.82+858.19+555.063C859.363+555.063+859.363+555.063+860.536+555.063C860.536+558.427+860.536+558.427+860.536+561.792C861.709+561.792+861.709+561.792+862.883+561.792C862.883+565.157+862.883+565.157+862.883+568.522C865.229+568.522+865.229+568.522+867.576+568.522C867.576+575.251+867.576+575.251+867.576+581.98C871.095+581.98+871.095+581.98+874.615+581.98C874.615+588.132+865.444+582.873+861.709+581.98Z" fill="#886548" stroke-linejoin="round" stroke="#886548" stroke-linecap="round" opacity="1"/>
<path stroke-width="1" opacity="1" stroke-linecap="round" d="M448.737+267.943C419.586+281.876+379.088+273.307+347.84+272.429C374.504+221.449+435.708+168.304+448.737+267.943Z" fill="#d7c9b8" stroke="#d7c9b8" stroke-linejoin="round"/>
<path stroke-linecap="round" d="M853.497+321.778C854.67+321.778+854.67+321.778+855.843+321.778C855.843+346.115+875.284+427.757+827.686+432.812C828.273+431.13+828.273+431.13+828.859+429.448C827.686+429.448+827.686+429.448+826.513+429.448C826.513+412.278+809.364+396.155+812.434+375.613C811.261+375.613+811.261+375.613+810.088+375.613C810.088+355.733+806.453+334.737+810.088+315.048C810.763+311.391+849.641+295.974+853.497+321.778Z" stroke-width="1" fill="#d7c9b8" stroke-linejoin="round" opacity="1" stroke="#d7c9b8"/>
<path d="M881.654+548.333C884.001+548.333+884.001+548.333+886.347+548.333C886.347+536.764+911.957+510.585+916.851+501.228C919.784+501.789+919.784+501.789+922.717+502.349C924.09+512.851+923.125+508.398+925.063+515.808C920.813+517.84+923.495+521.05+921.544+524.781C920.957+522.537+920.957+522.537+920.37+520.294C918.502+534.58+908.638+545.895+908.638+559.549C899.179+559.549+904.594+577.438+905.119+586.467C903.359+586.467+903.359+586.467+901.599+586.467C901.599+576.372+901.599+576.372+901.599+566.278C897.065+569.168+892.213+569.292+892.213+575.251C883.518+575.251+880.466+583.107+873.442+585.345C874.028+583.663+874.028+583.663+874.615+581.98C871.095+581.98+871.095+581.98+867.576+581.98C867.576+566.342+863.981+570.837+869.922+565.157C871.095+565.718+871.095+565.718+872.268+566.278C876.108+558.937+871.802+550.577+881.654+550.577C881.654+549.455+881.654+549.455+881.654+548.333Z" stroke-linecap="round" stroke="#b1c7c1" stroke-width="1" fill="#b1c7c1" stroke-linejoin="round" opacity="1"/>
<path fill="#b0c7c2" d="M173.03+322.899C173.03+317.535+171.096+309.682+170.684+304.954C169.511+304.954+169.511+304.954+168.337+304.954C168.337+286.303+140.18+274.657+140.18+258.97C165.547+257.353+164.104+268.479+184.762+272.429C184.762+273.55+184.762+273.55+184.762+274.672C185.936+274.672+185.936+274.672+187.109+274.672C187.891+276.915+188.673+279.158+189.455+281.401C190.629+281.401+190.629+281.401+191.802+281.401C191.802+282.523+191.802+282.523+191.802+283.645C194.548+283.645+201.123+288.264+203.534+289.252C200.488+290.708+201.187+289.538+201.187+292.617C202.361+292.617+202.361+292.617+203.534+292.617C203.534+296.592+208.045+310.136+207.054+313.927C204.861+322.31+189.455+317.098+189.455+327.385C182.383+327.385+186.306+327.631+177.723+326.264C177.723+324.582+177.723+324.582+177.723+322.899C175.377+322.899+175.377+322.899+173.03+322.899Z" stroke-linecap="round" opacity="1" stroke-linejoin="round" stroke-width="1" stroke="#b0c7c2"/>
<path stroke="#d8c9b9" opacity="1" d="M221.132+410.381C221.132+408.699+221.132+408.699+221.132+407.016C194.852+407.016+168.95+331.851+230.518+334.115C259.339+335.175+250.463+373.797+250.463+391.315C250.463+408.236+235.003+410.381+221.132+410.381Z" stroke-linejoin="round" stroke-width="1" stroke-linecap="round" fill="#d8c9b9"/>
<path fill="#afc5bc" stroke-linejoin="round" stroke="#afc5bc" opacity="1" d="M354.879+189.433C354.879+186.069+354.879+186.069+354.879+182.704C353.119+182.704+353.119+182.704+351.359+182.704C351.359+167.062+338.047+138.768+322.029+131.112C329.781+130.371+372.477+136.981+372.477+150.179C374.237+150.179+374.237+150.179+375.997+150.179C375.997+154.093+384.306+163.294+388.902+164.759C388.902+165.88+388.902+165.88+388.902+167.002C390.076+167.002+390.076+167.002+391.249+167.002C391.249+186.879+388.487+182.794+368.958+180.461C368.083+187.151+369.979+191.676+363.092+191.676C363.092+190.555+363.092+190.555+363.092+189.433C358.985+189.433+358.985+189.433+354.879+189.433Z" stroke-linecap="round" stroke-width="1"/>
<path stroke-width="1" fill="#b6cfcd" stroke="#b6cfcd" d="M872.268+253.362C872.268+240.447+866.361+184.56+881.654+189.433C881.654+202.323+893.708+206.262+896.906+217.472C903.434+240.356+891.75+266.274+900.426+287.009C890.578+288.578+894.04+285.944+891.04+295.982C889.867+295.421+889.867+295.421+888.693+294.86C886.967+298.16+887.797+296.311+886.347+300.468C883.414+299.907+883.414+299.907+880.481+299.346C879.894+293.739+879.894+293.739+879.308+288.131C878.134+288.131+878.134+288.131+876.961+288.131C876.961+284.766+876.961+284.766+876.961+281.401C875.788+281.401+875.788+281.401+874.615+281.401C874.615+280.28+874.615+280.28+874.615+279.158C872.268+278.411+869.922+277.663+867.576+276.915C867.576+274.672+867.576+274.672+867.576+272.429C866.402+272.429+866.402+272.429+865.229+272.429C866.011+270.933+866.793+269.438+867.576+267.943C866.402+267.943+866.402+267.943+865.229+267.943C867.71+263.199+864.869+253.362+872.268+253.362Z" opacity="1" stroke-linecap="round" stroke-linejoin="round"/>
<path d="M672.821+141.206C659.916+141.206+659.916+141.206+647.01+141.206C647.01+140.084+647.01+140.084+647.01+138.963C644.077+138.963+644.077+138.963+641.144+138.963C641.144+137.841+641.144+137.841+641.144+136.72C638.798+136.72+638.798+136.72+636.451+136.72C636.451+127.186+636.451+127.186+636.451+117.653C635.278+117.653+635.278+117.653+634.105+117.653C634.105+116.532+634.105+116.532+634.105+115.41C632.345+115.41+632.345+115.41+630.585+115.41C644.908+108.564+623.273+85.8366+624.719+76.1554C626.526+64.0666+661.828+95.222+663.436+95.222C663.436+102.267+666.349+105.242+668.128+112.045C670.475+112.045+670.475+112.045+672.821+112.045C672.821+116.532+672.821+116.532+672.821+121.018C673.994+121.018+673.994+121.018+675.168+121.018C675.168+136.648+672.821+133.031+672.821+141.206Z" stroke-width="1" stroke-linecap="round" opacity="1" fill="#b3cdc8" stroke="#b3cdc8" stroke-linejoin="round"/>
<path fill="#d9caba" stroke-linejoin="round" stroke-linecap="round" opacity="1" d="M842.938+555.063C842.938+570.751+835.899+586.133+835.899+598.804C831.267+598.804+830.357+600.84+826.513+603.29C828.859+603.29+828.859+603.29+831.206+603.29C831.206+604.412+831.206+604.412+831.206+605.533C778.669+605.533+801.881+541.98+842.938+555.063Z" stroke-width="1" stroke="#d9caba"/>
</g>
</svg>
