<svg xmlns="http://www.w3.org/2000/svg" xmlns:vectornator="http://vectornator.io" xml:space="preserve" stroke-linecap="round" stroke-linejoin="round" clip-rule="evenodd" viewBox="0 0 1024 1024">
  <g vectornator:layerName="图层 1">
    <path fill="#fefefe" stroke="#fefefe" d="M1 0h1023v1024H0L1 0Z"/>
    <path fill="#2ec5d6" stroke="#2ec5d6" d="M701 347c3-4 3-2 6-5-10-10-16-24-30-30-9-4-10 9-13-5 7 0 5-1 8 2 8-8 19-15 24-25l-6-2c2-3 3-4 7-4 0-11 0-22 2-33h-8c0-5 5-6 9-4 0-14-96-4-115-4l-208 5c-12 0-45-1-58 3 0-21-1-43-3-64 129 0 259 0 388-3-2-8 0-7 8-7 0 7 1 5-2 8 14 0 27 17 35 25 3 3 12-8 14 1l1 7h-2v-3l-1 3-7-1c-1 22-1 44 1 66 3-2 6-2 9 0l-7 8c0 4 14 29 17 29 0 7 4 2 8 2v7c-12-2-21 13-27 22 3 4 1 3 5 3-2 5 0 2-11 2 0-3 0-2 3-5l-38-1c-2 0 0 4 0 6-6 1-5 1-9-3Z"/>
    <path fill="#081313" stroke="#081313" d="M234 204c12-6 12-24 16-32 4 2 2 0 3 7 18 0 39-8 56-8 0 5-1 5-6 5-5 183 10 371 21 554h15l-94 1c0-174-8-349-12-523l-6-1-1-7c5-2 6 0 8 4Z"/>
    <path fill="#ead83a" stroke="#ead83a" d="M707 735c0-48-3-95-6-143-1-15 6-33-12-33 0-10 7-5 11-3 5-16-100-3-109-3-2 9-4 10-13 7 0-6 3-7 9-8-12-6-21-23-30-32-6-6-6 7-12 3-8-6 2-12 9-9 5-10 21-27 21-38-28 0 22-23 31-4-13 7 2 21 10 29 1-5 0-3 4-7 19 19 59 8 85 4 0-8 2-8 10-7-2 5-2 6-8 8 14 9 29 24 45 29 3-5 6-5 12-2-6 6-1 6-12 6a4542 4542 0 0 0 7 204l-52-1Z"/>
    <path fill="#161ab8" stroke="#161ab8" d="M761 753c-133 0-267-3-401-6-33-1-66 0-99-2-7 0-12-6-17-5-13 2 13 51 3 59l3 1 2-3c7 7 18 15 21 25l-4 3c1 3 0 2 3 3 3-3 3-2 3-5 156-9 313-6 469-8-7 9-4 10 7 12-4-2-2-7-4-11l11-11 11 3-5-1 1-7c-5 0-3-1-6 1 7-13 3-34 2-48Z"/>
    <path fill="#1d2727" stroke="#1d2727" d="M241 769c-16-5-9-54-9-66l-1-49-5-318-1-86c0-17-11-38 1-50l1 7 6 1c0 174 3 349 12 523h9c-22 2-12 18-13 38Z"/>
    <path fill="#242e2e" stroke="#242e2e" d="m339 731-15-1c0-160-19-320-19-480 3 5 10 7 13 1 11 160 13 320 21 480Z"/>
    <path fill="#1b4447" stroke="#1b4447" d="M319 250h97l-98 1c-26 1-15-48-16-74 5-1 7-1 7-6 14 4 10 66 10 79Z"/>
    <path fill="#f0e26e" stroke="#f0e26e" d="M587 562c4-4 3-2 3-8l51-2c10-1 58-11 60 1 1 5-11-5-12 4-1 6 1 56 1 58l-2-54-101 1Z"/>
    <path fill="#2c30be" stroke="#2c30be" d="m732 735-37 1-1 16c-86 0-173-3-259-4-32 0-64-5-95-1v-14c131-1 261 2 392 2Z"/>
    <path fill="#2a2ebe" stroke="#2a2ebe" d="M751 826h-9c-3-8-3-5 2-10-115-2-230 0-345 2-25 0-107-10-127 10 158 0 316 3 474 2 2 0 4-2 5-4Z"/>
    <path fill="#46ccda" stroke="#46ccda" d="M691 248c-8-15-34-2-51-2l-111 2-210 2v-5c104 0 208-6 312-8l47-1c13-1 18-6 22 5-7 0-9-2-9 7Z"/>
    <path fill="#3fc9d8" stroke="#3fc9d8" d="M717 170c-8 0-15-2-13 8-129 2-259 2-388 3 0-7-1-8-7-11h408Z"/>
    <path fill="#eee067" stroke="#eee067" d="M759 736c0-49-4-99-5-148 0-19 3-38-2-56 6 0 10 3 10-4h2l4 149h2l1 65-12-6Z"/>
    <path fill="#ecdb4c" stroke="#ecdb4c" d="M689 559h9c0 58 4 118 9 176h-13c0-59-2-118-5-176Z"/>
    <path fill="#3dcad9" stroke="#3dcad9" d="M691 245h8l-2 33c-4 0-4 1-7 4l6 1c-7 14-17 26-32 24 0-11 19-16 24-25 4-6 3-28 3-37Z"/>
    <path fill="#171cab" stroke="#171cab" d="M378 732h-37l-1 15c-4 0-97-5-98-4-10-10 6-11 12-11h124Z"/>
    <path fill="#50cfdc" stroke="#50cfdc" d="M778 323v-7c-4 0-4 2-7 2 0-3 0-4-3-4 0-8-10-24-15-29l8-7 7 16h2c0 24 25 20-2 43-5 4-9 14-15 11-4-2 15-27 25-25Z"/>
    <path fill="#3337c0" stroke="#3337c0" d="M270 828c-24-8-30-39-28-59 4 8 18 21 5 30l3 1 2-3c7 7 18 15 21 25l-4 3 1 3Z"/>
    <path fill="#ecda49" stroke="#ecda49" d="M544 523c-11-6 18-42 22-50v2l9 1c0 11-20 38-30 37-2 3-1 6-1 10Z"/>
    <path fill="#ecdb4a" stroke="#ecdb4a" d="M577 560c-9-13-22-22-31-36l8-6c8 4 28 26 32 34-5 1-8 3-9 8Z"/>
    <path fill="#54d0dd" stroke="#54d0dd" d="M709 171c17-2 40 15 47 30-6 2-3 0-9 5-6-11-24-24-37-27 3-3 2-1 2-8h-3Z"/>
    <path fill="#eede5c" stroke="#eede5c" d="M761 524c-18 0-38-10-53-25 3-1 6-2 6-6 16 0 34 23 47 31Z"/>
    <path fill="#3fcad9" stroke="#3fcad9" d="M701 347c-7-13-23-25-35-31 4-2 1 0 7-6 14 10 24 18 34 32-3 3-3 1-6 5Z"/>
    <path fill="#ecdb4a" stroke="#ecdb4a" d="M621 493c31 0 61-3 92-4-7 1-8 2-8 9-19 0-76 18-84-5Z"/>
    <path fill="#6163cd" stroke="#6163cd" d="m764 807 1-7c-5 0-3-1-6 1 9-17 1-42 2-60l2-2c18-3 23 68 1 68Z"/>
    <path fill="#282aad" stroke="#282aad" d="M766 739c-8 0-5 6-5 14l-67-1v-15l68-1 4 3Z"/>
    <path fill="#213132" stroke="#213132" d="M253 179c-3-18 49-17 58-8-18 0-39 3-58 8Z"/>
    <path fill="#1a2727" stroke="#1a2727" d="M228 199c4-8 14-27 22-27l-15 32c-2-4-3-4-7-5Z"/>
    <path fill="#4acddb" stroke="#4acddb" d="M760 277c-3 0-6-2-9 0l-1-66 7 1v-2c1 3 0 2 3 2v65Z"/>
    <path fill="#eede5b" stroke="#eede5b" d="M621 494c-5 4-4 1-5 8-5-8-13-14-17-23 4-2 4-6 8-7 0 8 10 15 14 22Z"/>
    <path fill="#72d8e3" stroke="#72d8e3" d="M706 351h3c0-2-1-7 1-7h38c-3 5-3 2-3 6h8c-7 14-31 1-47 1Z"/>
    <path fill="#5b5ecd" stroke="#5b5ecd" d="M749 826c-1-9 0-6-2-10l11-11 9 3c-7 2-10 18-18 18Z"/>
  </g>
</svg>