<svg xmlns="http://www.w3.org/2000/svg" xmlns:vectornator="http://vectornator.io" xml:space="preserve" stroke-linecap="round" stroke-linejoin="round" clip-rule="evenodd" viewBox="0 0 786 789">
  <path vectornator:layerName="图层 4" fill="#b63526" d="M32 389a360 360 0 1 1 720 1 360 360 0 0 1-720-1Z"/>
  <path vectornator:layerName="图层 3" fill="#347fe7" d="M76 389C76 225 218 92 393 92c176 0 318 133 318 297 0 77-31 147-82 199-58 61-142 99-236 99-175 0-317-133-317-298Z"/>
  <path vectornator:layerName="图层 2" fill="#67d9d2" d="m490 506-12 15-15 14-13 9-14 8-22-2-14-7-8-13-6-15-2-13 2-12 10-9 9 11 1 10-1 11-6 12-14 17-15 15-13 13-16 15-19 17-15 12-10 7-7 12-8 12 14-4 11-6 12-7 16-9 15-10 12-9 15-8s6-5 12-7c6-3 8-7 8-7l9-9 9-11 11-12 8-17 5-18v-19l-4-17-10-14-12-10-10-2-13 2-11 4-11 8-8 12-5 13-2 11v12l3 12 4 11 4 10 7 8 7 9 8 6 9 8 7 6 9 3 10 2h15l12-4 12-7 14-7 10-9 12-11 9-11 10-12 7-14 6-17 2-16v-21l-2-16-4-17-7-15-8-13-12-16-18-10-14-3-21 2 14-15 18-21 16-22 9-12 6-13 6-14v-11l-2-9-6-8-9-6-14-1-15 3-19 8-18 10-21 14-17 11-18 15-16 13-17 13-15 11-13 9-7 3-9-5-8-5-10-9-9-10-8-10-7-7-7-5-10-1-4 3 1 7 1 11 4 9 5 2 5 8 8 13 9 12 9 10 15 8 15 4 15-4 15-8 11-8 14-10 8-8 15-11 11-10 11-7 8-7 13-9 10-7 12-8 13-6 14-7-6 12-9 13-17 23-14 17-13 16-13 15-13 13-9 10-8 10-2 6-1 5 1 5 3 5 5 3 6 1 8-2 7-5 9-4 9-5 10-5 12-2 11-2h10l11 5 9 9 7 12 4 10 2 13 2 10v10l-1 10-1 9-2 9-3 8Z"/>
  <path vectornator:layerName="图层 6" fill="#63cec7" d="m337 139 2-6 3-4 5-3 5 1h4l5 3 4 4 2 6 3 5 3 4 5 3 7 3 6 2 7 3 6 4 6 4 5 3 4 5 4 6 2 8-1 7-3 6-3 6-3 4-2 6-1 8-3 4-3-10-1-4v-5l-2-6-3-3-6-6-5-3-6-4-6-2-8-4-8-3-7-4-6-4-4-5-4-6-3-7-1-5v-5"/>
</svg>