<?xml version="1.0" encoding="UTF-8" standalone="no"?> <!-- Created with Vectornator for iOS (http://vectornator.io/) --><!DOCTYPE svg PUBLIC "-//W3C//DTD SVG 1.1//EN" "http://www.w3.org/Graphics/SVG/1.1/DTD/svg11.dtd">
<svg height="100%" xmlns="http://www.w3.org/2000/svg" version="1.1" style="fill-rule:nonzero;clip-rule:evenodd;stroke-linecap:round;stroke-linejoin:round;" viewBox="0 0 1024 1024" xmlns:vectornator="http://vectornator.io" xml:space="preserve" width="100%" xmlns:xlink="http://www.w3.org/1999/xlink">
<metadata>
<vectornator:setting key="WDRulersVisible" value="true"/>
<vectornator:setting value="false" key="WDSnapToEdges"/>
<vectornator:setting key="WDOutlineMode" value="false"/>
<vectornator:setting key="IsTimeLapseWatermarkDisabled" value="false"/>
<vectornator:setting value="true" key="VNDimensionsVisible"/>
<vectornator:setting key="WDSnapToPoints" value="false"/>
<vectornator:setting key="VNPencilOnly" value="false"/>
<vectornator:setting key="WDUnits" value="Pixels"/>
<vectornator:setting key="WDSnapToGrid" value="false"/>
<vectornator:setting value="false" key="UndoHistoryDisabled"/>
<vectornator:setting key="WDCMYKEnabledKey" value="false"/>
<vectornator:setting key="WDGuidesVisible" value="true"/>
<vectornator:setting key="VNSnapToGuides" value="true"/>
<vectornator:setting key="WDDisplayWhiteBackground" value="false"/>
<vectornator:setting key="WDIsolateActiveLayer" value="false"/>
<vectornator:setting key="WDDynamicGuides" value="false"/>
</metadata>
<defs/>
<g id="图层 1" vectornator:layerName="图层 1">
<path stroke-linejoin="round" stroke-width="1" d="M1+0C512.5+0+512.5+0+1024+0C1024+512+1024+512+1024+1024C512+1024+512+1024+0+1024C0.5+512+0.5+512+1+0Z" stroke-linecap="round" opacity="1" stroke="#fefefe" fill="#fefefe"/>
<path opacity="1" stroke="#2ec5d6" stroke-linecap="round" d="M701+347C703.65+343.024+703.933+345.067+707+342C696.795+331.795+691.108+318.046+677+312C668.063+308.17+666.817+321.083+664+307C670.943+307+668.586+305.586+672+309C679.652+301.348+690.985+294.03+696+284C693+283+693+283+690+282C691.659+278.681+693.388+278+697+278C697+266.918+697.431+255.984+699+245C695+245+695+245+691+245C691+239.538+695.971+238.985+700+241C700+227.449+604.218+236.573+585+237C515.667+238.541+446.319+239.931+377+242C365.168+242.353+331.945+240.685+319+245C319+223.603+317.641+202.327+316+181C445.422+181+574.627+181.009+704+178C702.424+170.12+703.99+171+712+171C712+177.943+713.414+175.586+710+179C723.871+179+736.501+195.501+745+204C748.087+207.087+757.08+196.359+759+205C759.511+207.301+759.667+209.667+760+212C759+212+759+212+758+212C758+210.5+758+210.5+758+209C757.5+210.5+757.5+210.5+757+212C753.5+211.5+753.5+211.5+750+211C748.704+233.035+748.556+255.006+751+277C754.1+275.45+756.901+275.45+760+277C758.774+279.452+753+284.46+753+285C753+288.812+766.874+314+770+314C770+321.014+774.017+316+778+316C778+319.5+778+319.5+778+323C765.876+320.575+757.388+336.483+751+345C753.555+348.832+751.798+348+756+348C753.509+352.981+755.745+350+745+350C745+346.586+744.529+348.471+748+345C735.333+344.667+722.667+343.675+710+344C708.001+344.051+709.515+348.06+710+350C703.919+351.216+704.839+350.839+701+347Z" stroke-linejoin="round" fill="#2ec5d6" stroke-width="1"/>
<path d="M234+204C245.54+198.23+245.833+180.334+250+172C253.814+173.907+251.877+172.265+253+179C271.251+179+292.105+171+309+171C309+175.846+307.702+176+303+176C297.771+358.998+313.246+547.176+324+730C331.5+730+331.5+730+339+730C292+730.5+292+730.5+245+731C245+556.679+236.557+382.276+233+208C230+207.5+230+207.5+227+207C226.5+203.5+226.5+203.5+226+200C230.599+197.701+232.156+200.312+234+204Z" stroke-linejoin="round" fill="#081313" opacity="1" stroke-linecap="round" stroke="#081313" stroke-width="1"/>
<path stroke-linecap="round" opacity="1" fill="#ead83a" stroke-width="1" stroke="#ead83a" d="M707+735C707+687.41+703.795+639.513+701+592C700.121+577.054+706.7+559+689+559C689+549.397+696.287+554.143+700+556C705.194+540.419+600.231+552.702+591+553C589.421+562.473+586.836+562.945+578+560C578+554.151+581.35+553.13+587+552C575.1+546.05+566.475+529.475+557+520C551.213+514.213+550.558+527.168+545+523C536.995+516.997+547.347+510.673+554+514C559.219+503.563+575+487.181+575+476C546.641+476+596.703+453.406+606+472C592.552+478.724+608.141+493.141+616+501C617.343+495.628+616.028+497.972+620+494C639.204+513.204+679.368+501.662+705+498C705+489.668+706.933+489.848+715+491C712.689+495.623+713.072+497.482+707+499C720.881+508.254+736.164+522.721+752+528C755.323+523.015+758.374+523.187+764+526C758.083+531.917+762.576+532+752+532C752+586.937+754.475+642.083+756+697C756.177+703.383+755.541+729.083+759+736C723.66+736+740.993+736.36+707+735Z" stroke-linejoin="round"/>
<path stroke-width="1" stroke-linejoin="round" stroke-linecap="round" stroke="#161ab8" d="M761+753C627.753+753+493.522+750.035+360+747C327.116+746.253+294.002+746.535+261+745C254.378+744.692+248.829+739.31+244+740C231.305+741.814+257.009+791.493+247+799C248.5+799.5+248.5+799.5+250+800C251+798.5+251+798.5+252+797C258.915+803.915+269.737+812.211+273+822C271+823.5+271+823.5+269+825C270.333+827.667+269.333+826.667+272+828C275.471+824.529+275+826.414+275+823C430.99+813.824+587.831+817.479+744+815C736.731+824.086+740.21+824.842+751+827C746.624+824.812+749.005+820.01+747+816C752.5+810.5+752.5+810.5+758+805C762.749+807.374+759.272+805.838+769+808C766.5+807.5+766.5+807.5+764+807C764.5+803.5+764.5+803.5+765+800C760.254+800+762.193+799.404+759+801C765.576+787.848+761.944+767.166+761+753Z" opacity="1" fill="#161ab8"/>
<path d="M241+769C224.55+763.517+232.299+714.807+232+703C231.587+686.668+231.305+670.334+231+654C229.019+548.008+227.342+442.001+226+336C225.637+307.334+225.462+278.665+225+250C224.731+233.332+214.213+211.787+226+200C226.5+203.5+226.5+203.5+227+207C230+207.5+230+207.5+233+208C233+381.794+236.322+557.444+245+731C249.5+731+249.5+731+254+731C231.934+733.207+241.989+749.224+241+769Z" opacity="1" stroke="#1d2727" stroke-linecap="round" stroke-linejoin="round" fill="#1d2727" stroke-width="1"/>
<path opacity="1" stroke="#242e2e" stroke-linejoin="round" stroke-linecap="round" d="M339+731C331.5+730.5+331.5+730.5+324+730C324+569.933+305+410.055+305+250C307.665+255.329+315.016+256.969+318+251C329.405+410.668+330.586+571.142+339+731Z" fill="#242e2e" stroke-width="1"/>
<path opacity="1" d="M319+250C367.5+250+367.5+250+416+250C383.333+250.333+350.653+250.011+318+251C292.126+251.784+302.76+202.831+302+177C307.037+175.993+309+176.25+309+171C323.489+174.622+319+236.655+319+250Z" stroke-linecap="round" fill="#1b4447" stroke-width="1" stroke="#1b4447" stroke-linejoin="round"/>
<path stroke-width="1" fill="#f0e26e" opacity="1" d="M587+562C591.179+557.821+590+560.414+590+554C616.47+553.146+617.906+553.283+641+552C650.767+551.457+698.639+541.193+701+553C701.918+557.589+690.241+548+689+557C688.105+563.485+689.929+612.654+690+615C688.942+597.019+688.487+579.006+688+561C654.332+561+620.662+561.353+587+562Z" stroke-linecap="round" stroke="#f0e26e" stroke-linejoin="round"/>
<path d="M732+735C713.5+735.5+713.5+735.5+695+736C694.5+744+694.5+744+694+752C607.673+752+521.316+749.279+435+748C403.335+747.531+371.35+742.521+340+747C340+740+340+740+340+733C470.724+732.024+601.305+735+732+735Z" stroke-linejoin="round" opacity="1" stroke="#2c30be" fill="#2c30be" stroke-linecap="round" stroke-width="1"/>
<path fill="#2a2ebe" opacity="1" d="M751+826C746.5+826+746.5+826+742+826C739.404+818.211+738.509+821.491+744+816C629.029+814.146+513.968+816.084+399+818C373.762+818.421+292.216+807.784+272+828C429.934+828+587.974+831.498+746+830C748.203+829.979+750.168+827.665+751+826Z" stroke="#2a2ebe" stroke-width="1" stroke-linecap="round" stroke-linejoin="round"/>
<path stroke-linecap="round" stroke-linejoin="round" d="M691+248C683.392+232.783+657.012+245.83+640+246C602.996+246.37+566.001+247.368+529+248C459.007+249.196+389.002+249.545+319+250C319+247.5+319+247.5+319+245C422.868+245+527.124+239.21+631+237C646.667+236.667+662.347+236.734+678+236C691.1+235.386+696.217+229.652+700+241C693.192+241+691+239.293+691+248Z" stroke="#46ccda" stroke-width="1" opacity="1" fill="#46ccda"/>
<path stroke="#3fc9d8" d="M717+170C709.048+170+702.095+168.476+704+178C574.665+179.522+445.344+180.316+316+181C316+174.344+314.691+172.846+309+170C513+170+513+170+717+170Z" stroke-linejoin="round" stroke-width="1" stroke-linecap="round" fill="#3fc9d8" opacity="1"/>
<path stroke-width="1" stroke-linejoin="round" fill="#eee067" stroke="#eee067" opacity="1" d="M759+736C759+686.762+755.133+637.275+754+588C753.571+569.326+756.53+550.121+752+532C757.522+532+762+535.305+762+528C763+528+763+528+764+528C766.254+577.595+767.045+627.36+768+677C769+677+769+677+770+677C770.5+709.5+770.5+709.5+771+742C767.212+739.475+763.322+737.441+759+736Z" stroke-linecap="round"/>
<path fill="#ecdb4c" stroke="#ecdb4c" d="M689+559C693.5+559+693.5+559+698+559C698+616.975+701.756+677.32+707+735C700.5+735+700.5+735+694+735C694+676.424+691.543+617.496+689+559Z" stroke-linecap="round" opacity="1" stroke-width="1" stroke-linejoin="round"/>
<path stroke="#3dcad9" stroke-width="1" fill="#3dcad9" stroke-linejoin="round" d="M691+245C695+245+695+245+699+245C699+256.045+697.999+267.01+697+278C693.095+278+692.662+279.338+690+282C693+282.5+693+282.5+696+283C689.096+296.809+678.86+309.477+664+307C664+295.783+682.901+290.668+688+282C691.81+275.523+691+253.564+691+245Z" opacity="1" stroke-linecap="round"/>
<path opacity="1" d="M378+732C359.5+732+359.5+732+341+732C340.5+739.5+340.5+739.5+340+747C335.736+747+242.588+742.118+242+743C231.756+732.756+248.101+732+254+732C295.333+732+336.667+732+378+732Z" stroke-linecap="round" fill="#171cab" stroke-width="1" stroke="#171cab" stroke-linejoin="round"/>
<path opacity="1" stroke-width="1" stroke="#50cfdc" d="M778+323C778+319.5+778+319.5+778+316C774.351+316+774.283+318+771+318C771+315.26+770.976+314+768+314C768+306.41+758.087+290.087+753+285C753.618+283.764+759.488+278.756+761+278C763.523+283.047+766.211+288.634+768+294C769+294+769+294+770+294C770+317.905+795.243+313.648+768+337C763.292+341.035+758.546+350.773+753+348C748.892+345.946+768.171+321.034+778+323Z" stroke-linejoin="round" fill="#50cfdc" stroke-linecap="round"/>
<path d="M270+828C245.828+819.943+240.134+788.596+242+769C246.1+777.2+259.662+789.504+247+799C248.5+799.5+248.5+799.5+250+800C251+798.5+251+798.5+252+797C258.915+803.915+269.737+812.211+273+822C271+823.5+271+823.5+269+825C269.5+826.5+269.5+826.5+270+828Z" stroke-linecap="round" opacity="1" stroke="#3337c0" stroke-linejoin="round" stroke-width="1" fill="#3337c0"/>
<path d="M544+523C532.563+517.281+561.973+481.054+566+473C566+474+566+474+566+475C570.357+475+567.34+474.906+575+476C575+487.052+554.885+514.412+545+513C543.389+516.222+544+519.48+544+523Z" opacity="1" stroke-linecap="round" stroke="#ecda49" stroke-linejoin="round" fill="#ecda49" stroke-width="1"/>
<path stroke-width="1" stroke="#ecdb4a" d="M577+560C568.006+546.509+555.152+537.729+546+524C552.784+519.477+550.3+521.7+554+518C562.441+522.221+581.82+543.64+586+552C580.839+553.29+578.276+554.897+577+560Z" opacity="1" stroke-linecap="round" fill="#ecdb4a" stroke-linejoin="round"/>
<path fill="#54d0dd" d="M709+171C725.524+169.348+748.658+186.315+756+201C749.929+202.518+753.073+201.141+747+206C741.255+194.509+722.778+182.194+710+179C713.414+175.586+712+177.943+712+171C710.5+171+710.5+171+709+171Z" opacity="1" stroke-linecap="round" stroke-width="1" stroke-linejoin="round" stroke="#54d0dd"/>
<path stroke-linejoin="round" opacity="1" stroke-linecap="round" d="M761+524C743.108+524+723.078+514.078+708+499C711.262+497.913+714+496.862+714+493C729.868+493+748.331+515.554+761+524Z" stroke="#eede5c" fill="#eede5c" stroke-width="1"/>
<path stroke-width="1" stroke-linecap="round" fill="#3fcad9" opacity="1" stroke="#3fcad9" stroke-linejoin="round" d="M701+347C694.409+333.818+678.436+322.218+666+316C670.108+313.946+667.473+315.527+673+310C687.275+319.516+697.438+327.657+707+342C703.933+345.067+703.65+343.024+701+347Z"/>
<path d="M621+493C651.901+493+682.152+490.341+713+489C706.311+490.338+705+491.069+705+498C685.896+498+628.608+515.823+621+493Z" fill="#ecdb4a" opacity="1" stroke="#ecdb4a" stroke-linecap="round" stroke-width="1" stroke-linejoin="round"/>
<path stroke-width="1" opacity="1" stroke-linecap="round" stroke-linejoin="round" fill="#6163cd" d="M764+807C764.5+803.5+764.5+803.5+765+800C760.254+800+762.193+799.404+759+801C767.532+783.935+759.777+759.35+761+741C761.063+740.059+762.067+739.133+763+739C780.752+736.464+786.415+807+764+807Z" stroke="#6163cd"/>
<path stroke-linecap="round" stroke-linejoin="round" stroke-width="1" opacity="1" fill="#282aad" d="M766+739C757.92+739+761+745.232+761+753C738.48+753+716.47+752.775+694+752C694+744.5+694+744.5+694+737C716.667+736.667+739.331+736+762+736C763.422+736+765.271+738.271+766+739Z" stroke="#282aad"/>
<path stroke-width="1" opacity="1" stroke="#213132" d="M253+179C250.038+161.227+302.29+162.29+311+171C292.946+171+272.029+174.243+253+179Z" stroke-linecap="round" stroke-linejoin="round" fill="#213132"/>
<path d="M228+199C231.833+191.333+241.661+172+250+172C245.243+181.513+240.7+192.599+235+204C233.178+200.357+232.055+200.014+228+199Z" stroke-width="1" fill="#1a2727" opacity="1" stroke="#1a2727" stroke-linecap="round" stroke-linejoin="round"/>
<path stroke="#4acddb" stroke-linejoin="round" d="M760+277C756.643+277+754.137+275.431+751+277C751+254.993+750+233.01+750+211C753.5+211.5+753.5+211.5+757+212C757+211+757+211+757+210C758.298+212.596+757.255+212+760+212C760+244.5+760+244.5+760+277Z" fill="#4acddb" opacity="1" stroke-width="1" stroke-linecap="round"/>
<path d="M621+494C615.64+498.02+617.327+495.366+616+502C610.599+493.899+603.284+487.568+599+479C603.451+476.774+602.575+473.475+607+472C607+480.224+616.652+487.478+621+494Z" stroke-width="1" fill="#eede5b" opacity="1" stroke="#eede5b" stroke-linecap="round" stroke-linejoin="round"/>
<path stroke-width="1" stroke="#72d8e3" stroke-linecap="round" fill="#72d8e3" opacity="1" d="M706+351C707.5+351+707.5+351+709+351C709+348.643+707.646+344.121+710+344C722.65+343.351+735.333+344+748+344C744.6+348.533+745+346.333+745+350C749+350+749+350+753+350C745.992+364.016+721.667+351.341+706+351Z" stroke-linejoin="round"/>
<path stroke-linecap="round" stroke-linejoin="round" opacity="1" fill="#5b5ecd" d="M749+826C747.908+817.26+749.202+820.404+747+816C752.5+810.5+752.5+810.5+758+805C762.171+807.085+759.283+805.795+767+808C759.688+810.437+757.311+826+749+826Z" stroke="#5b5ecd" stroke-width="1"/>
</g>
</svg>
